<svg xmlns="http://www.w3.org/2000/svg" viewBox="0 0 423.87835 126.89199"><defs><style>.cls-1{fill:#009edb;}.cls-2{fill:#231f20;}</style></defs><g id="Emblem"><path id="emblem-2" data-name="emblem" class="cls-1" d="M512.68372,282.45314c.07087-.01592.1681.06185.20342.10259a22.36042,22.36042,0,0,1-9.725,5.75054,19.69157,19.69157,0,0,1-7.67869.54657,24.65986,24.65986,0,0,1-10.86246-4.2364c-1.98648-1.30546-3.95161-2.64266-5.91681-3.98a9.75379,9.75379,0,0,0-7.369-1.39026c-1.42039.15389-.34316.83667-.12559.94451a57.983,57.983,0,0,1,9.93392,6.18042c2.10488,1.54415,5.86021,5.165,5.86021,5.165l-2.809,2.40558s-2.14385-2.40205-3.07775-3.336a52.30535,52.30535,0,0,0-12.82958-9.93735.95427.95427,0,0,0-1.26291,0,52.33484,52.33484,0,0,0-12.8313,9.93735c-.93218.934-3.07592,3.33605-3.07592,3.33605l-2.81081-2.40558s3.75709-3.6209,5.862-5.165a57.98051,57.98051,0,0,1,9.93381-6.18042c.21763-.10784,1.2948-.79062-.12553-.94451a9.75354,9.75354,0,0,0-7.369,1.39026c-1.9653,1.33731-3.93215,2.67451-5.91863,3.98a24.64278,24.64278,0,0,1-10.86245,4.2364,19.68469,19.68469,0,0,1-7.67687-.54657,22.41689,22.41689,0,0,1-9.73393-5.76292.28081.28081,0,0,1,.21221-.09021c.23525.10431.38024.1786.60848.29717a19.3519,19.3519,0,0,0,12.90554,1.50523,43.02256,43.02256,0,0,0,8.701-3.01406c2.02893-.865,4.03293-1.81838,6.122-2.50823a28.81164,28.81164,0,0,1,16.41139-.36969,2.042,2.042,0,0,0,.27948.04947,2.08953,2.08953,0,0,0,.27948-.04947,28.81185,28.81185,0,0,1,16.41145.36969c2.089.68985,4.09307,1.64326,6.12188,2.50823a42.985,42.985,0,0,0,8.70109,3.01406,19.352,19.352,0,0,0,12.90554-1.50523C512.30347,282.63174,512.44857,282.55745,512.68372,282.45314Zm12.99757-11.8a17.65219,17.65219,0,0,1-5.82842,3.07956,33.61,33.61,0,0,1-9.17326,1.37263,109.33207,109.33207,0,0,0-11.968,1.03649l-.06367.01073c-.25124.04063-.36616-.06551-.28484-.15218a.20183.20183,0,0,1,.06014-.04068c3.56429-1.30541,5.98584-4.07018,7.80953-7.54061,1.263-2.40387,3.33074-7.10023,3.90562-7.86785a.31264.31264,0,0,0-.03891-.20171c-.27064.0885-4.19389,3.42809-5.97513,5.082-2.20935,2.05358-4.28957,4.247-6.50058,6.30064-3.45456,3.29891-8.4215,4.7476-10.22036,5.21458a.40131.40131,0,0,0-.14157.06362.606.606,0,0,0-.09021.16279.01632.01632,0,0,0,.0141.023l.08142.01946c1.39562.31834,5.42689,1.19392,7.49468,1.74586a51.11987,51.11987,0,0,0,9.66317,1.79886,23.23594,23.23594,0,0,0,21.51984-10.06824c.00708-.01067.0141-.0283.00708-.03184A.33166.33166,0,0,0,525.68129,270.65314Zm12.14852-18.626a31.19882,31.19882,0,0,1-6.96584,6.07771,44.359,44.359,0,0,1-7.15489,3.90037,38.00537,38.00537,0,0,0-8.78776,5.16151c-.1786.14682-.32719.2582-.50761.39086-.09723.07076-.1928-.04953-.08667-.17329.13443-.15571,4.18864-4.3071,5.40738-13.10542.42446-3.07072.4846-6.38732,1.48047-9.3466a.29733.29733,0,0,0-.06186-.24057c-.00536-.00707-.03189.01062-.03714.01769a40.63423,40.63423,0,0,0-6.6155,12.01934c-.819,2.34544-1.60081,4.70332-2.448,7.03826a22.38356,22.38356,0,0,1-5.089,8.55234c-.03532.03714-.21939.22995-.21939.22995a.45024.45024,0,0,0-.04063.1451c0,.00884.01238.02653.01946.02471.34852-.06014.57664-.09375.80134-.14146,2.71342-.56078,5.41092-1.20994,8.14014-1.66448A26.6412,26.6412,0,0,0,527.887,265.711a29.03245,29.03245,0,0,0,8.84254-10.34607,19.50094,19.50094,0,0,0,1.35312-3.37137A.2855.2855,0,0,0,537.82981,252.02714Zm5.32071-20.93612c-1.171,3.734-3.28835,6.757-6.37682,10.00816-2.4215,2.49933-7.08242,7.22575-9.23506,10.50338-.0602.092-.22122.05135-.16108-.11492a27.25509,27.25509,0,0,0,.85794-11.81062c-.53064-3.336-1.99171-6.9764-2.35262-11.05891-.00353-.01946.00183-.023-.00525-.04245-.02128-.053-.11149-.17689-.17163-.18214a3.1094,3.1094,0,0,0-.13792.38738A36.77375,36.77375,0,0,0,523.847,236.884c-.17688,3.329.451,7.60954.17689,11.0358-.31845,3.95869-.589,7.87492-2.40387,11.46575a.55464.55464,0,0,0-.02123.05831c-.03709.09558.06368.27246.06368.27246a.07789.07789,0,0,0,.023-.0089c1.45575-.92859,5.60372-3.37491,8.33836-5.20036a32.23564,32.23564,0,0,0,8.79467-8.39856,25.13682,25.13682,0,0,0,4.57425-14.61419,3.55487,3.55487,0,0,0-.03532-.52712C543.3185,230.95128,543.15931,231.06449,543.15052,231.091Zm-8.79832,2.25352a.11368.11368,0,0,1-.069.07606c-.08485.02476-.12554-.07789-.12377-.10088a18.47294,18.47294,0,0,0,.069-3.35723c-.28484-3.911-2.64443-7.14969-4.714-10.40443a49.71405,49.71405,0,0,1-3.74643-6.665c-.00707-.01764-.16444-.11675-.21226-.09546a21.76887,21.76887,0,0,0,.12913,2.24638c.58018,5.59847,2.36318,11.08008,4.20809,16.39376a22.75324,22.75324,0,0,1,1.47169,10.36541c-.04063.31309-.05135.3467.0796.44227.00525.00354.01232-.0089.01586-.00354,1.26119-1.8202,3.71818-4.37436,5.23049-6.21751,1.63978-1.99531,9.89849-11.40908,5.83014-24.52511a9.32245,9.32245,0,0,0-.64027-1.62381c-.06368.00177-.17336.16456-.18579.2069.02482,9.43511-4.53881,13.48583-6.44387,19.94031C534.88816,231.25193,534.60161,232.39289,534.3522,233.34454Zm-7.11255-29.32578a30.52959,30.52959,0,0,1-5.02708-5.60024.16313.16313,0,0,0-.03007-.03709.25863.25863,0,0,0-.0566-.04422.29086.29086,0,0,0-.214-.04245c-.06014-.01062-.10967-.00708-.10613.00707.08131.39269,1.37965,4.55479,2.21814,6.4934a37.76157,37.76157,0,0,0,4.98108,7.553c.13084.17506.26351.34841.39451.52535,1.83065,2.46047,4.75815,7.70329,5.464,10.39371.01935.07611.18208.14681.18916.115.25648-.96054,1.4399-4.691,2.31719-7.20989a70.12031,70.12031,0,0,0,2.05015-7.76874c.88614-6.2069-1.16031-14.26053-4.78291-18.66143-.06014.02128-.1115.18225-.10094.21762.06733.207.115.36616.17517.57311.0796.27058.15566.543.21934.82069a25.685,25.685,0,0,1,.1645,10.3354,44.53954,44.53954,0,0,0-.75889,8.21985c.02305.46172.30607,3.865.26356,3.99412-.0477.15206-.18567.03532-.20159-.04428-.00536-.02471-.44575-1.26467-.888-2.303-.184-.45111-.36969-.8774-.5254-1.18513C531.53088,207.48394,529.65059,205.98572,527.23965,204.01876Zm-3.99584-25.12835a11.83817,11.83817,0,0,1,2.6975,3.88617c.9994,2.34372,1.293,5.86738,1.93866,8.533.39446,1.61844.63673,2.76465,1.20459,4.60249.05124.161-.11674.23531-.2017.08142a.72994.72994,0,0,0-.04417-.06014c-1.86791-2.53122-4.1851-4.11086-7.4876-6.19457a17.27,17.27,0,0,1-4.87667-4.37962c-.24587-.33077-.49881-.65453-.74822-.97994a.35477.35477,0,0,0-.21757-.06191,2.559,2.559,0,0,0,.0566.4086,17.58735,17.58735,0,0,0,4.28947,8.39845c1.75641,1.67693,3.73045,3.1663,5.60543,4.71758a47.4195,47.4195,0,0,1,6.5678,6.81892l.03537.03892s.15036.09546.14682.04239c-.00177-.01232-.00177-.02824-.00354-.04068l.00354-.00348c-.046-.49-.06362-1.26832-.06362-2.18807.00171-2.04833.09369-4.78828.1839-6.67387.03532-.76238.06186-1.52829.05832-2.29244a16.25022,16.25022,0,0,0-1.21692-6.68454,15.552,15.552,0,0,0-7.32481-8.00222,3.63064,3.63064,0,0,0-.64563-.24593.37139.37139,0,0,0,.01764.2477A.06269.06269,0,0,0,523.24381,178.89041Zm-14.32415-6.61368a32.25045,32.25045,0,0,1,5.112,6.09187,29.58306,29.58306,0,0,0,4.82719,5.95926c1.2948,1.30723,5.06422,4.23645,6.007,4.967a.19643.19643,0,0,0,.04068.03183.14027.14027,0,0,0,.0796-.0053s-.00525-.02653-.00707-.04251c-.19817-1.08248-1.90152-9.02291-6.872-12.95324a24.89175,24.89175,0,0,0-9.66505-4.67507c-.03527.06539.00353.237.02482.23349C508.63316,172.029,508.75339,172.12992,508.91966,172.27673ZM430.86382,280.76029a51.1224,51.1224,0,0,0,9.66323-1.79886c2.06778-.55194,6.099-1.42752,7.49462-1.74586l.08131-.01946a.01633.01633,0,0,0,.01426-.023.61055.61055,0,0,0-.09032-.16279.39588.39588,0,0,0-.14328-.06362c-1.79709-.46527-6.764-1.91567-10.21865-5.21458-2.21106-2.05363-4.29112-4.24706-6.50047-6.30064-1.78123-1.65388-5.70454-4.99347-5.97512-5.08368a.3186.3186,0,0,0-.039.20342c.57482.76762,2.64272,5.464,3.90562,7.86785,1.82374,3.47043,4.24524,6.2352,7.80942,7.54061a.19908.19908,0,0,1,.06014.04068c.08142.08667-.03355.19281-.28473.15218l-.06368-.01073a109.3317,109.3317,0,0,0-11.968-1.03649,33.61125,33.61125,0,0,1-9.17326-1.37263,17.65094,17.65094,0,0,1-5.82836-3.07956.33239.33239,0,0,0-.27069.00707c-.00708.00354,0,.02117.00718.03184a23.23581,23.23581,0,0,0,21.51979,10.06824Zm-3.099-8.18265c.22459.04771.45283.08132.80129.14146.00707.00182.01951-.01587.01951-.02654a.45074.45074,0,0,0-.04079-.14327s-.18391-.19281-.221-.22995a22.43388,22.43388,0,0,1-5.08722-8.55234c-.84722-2.33494-1.63088-4.69282-2.44809-7.03826a40.658,40.658,0,0,0-6.6155-12.01934c-.00536-.00707-.03189-.02476-.03715-.01769a.29566.29566,0,0,0-.06191.23874c.99587,2.96111,1.056,6.27771,1.48053,9.34843,1.21874,8.79832,5.27289,12.94971,5.40738,13.10542.10613.12376.00879.24405-.08667.17329-.17866-.13266-.329-.24233-.50772-.39086a38.00469,38.00469,0,0,0-8.78759-5.16151,44.35763,44.35763,0,0,1-7.155-3.90037,31.29147,31.29147,0,0,1-6.96744-6.07771.28157.28157,0,0,0-.25124-.03361,19.64827,19.64827,0,0,0,1.35323,3.37137,29.0472,29.0472,0,0,0,8.84243,10.34607,26.64169,26.64169,0,0,0,12.22276,5.20219C422.35387,271.3677,425.05137,272.01869,427.76479,272.57764Zm-22.49973-18.07057c2.73459,1.82545,6.8826,4.27177,8.33831,5.20036a.07789.07789,0,0,0,.023.0089s.10082-.17688.06367-.27246a.55252.55252,0,0,0-.02128-.05831c-1.81484-3.59083-2.08542-7.50706-2.40376-11.46575-.27422-3.42626.35372-7.70683.17689-11.0358a36.96723,36.96723,0,0,0-1.72115-8.10311,3.05173,3.05173,0,0,0-.138-.38738c-.06009.00525-.1503.12913-.17153.18214-.007.01946-.00176.023-.0053.04245-.36085,4.08251-1.82374,7.72286-2.35252,11.05891a27.25456,27.25456,0,0,0,.85784,11.81062c.06008.16627-.10265.207-.161.11492-2.15274-3.27763-6.81355-8.00405-9.23517-10.50338-3.08835-3.25121-5.20572-6.27417-6.3767-10.00816-.0089-.02653-.168-.13974-.20525-.12382a3.28858,3.28858,0,0,0-.03714.52712,25.13765,25.13765,0,0,0,4.5743,14.61419A32.23379,32.23379,0,0,0,405.26506,254.50707Zm-1.43636-12.26522c.00354-.00536.01056.00708.01592.00537.1309-.0974.12028-.131.0796-.4441a22.75786,22.75786,0,0,1,1.47168-10.36541c1.84491-5.31368,3.62786-10.79529,4.2081-16.39194a21.79111,21.79111,0,0,0,.12907-2.2482c-.0477-.02129-.20513.07782-.21221.09728a49.68475,49.68475,0,0,1-3.74637,6.66321c-2.06961,3.25474-4.431,6.49345-4.714,10.40443a18.48365,18.48365,0,0,0,.06893,3.35723c.00182.023-.03886.12564-.12376.10088a.11355.11355,0,0,1-.06893-.07606c-.24941-.95165-.536-2.09261-.9004-3.32191-1.90323-6.45448-6.46692-10.5052-6.44221-19.94031-.01228-.04234-.122-.20513-.18562-.2069a9.31942,9.31942,0,0,0-.64038,1.62381c-4.06841,13.116,4.1904,22.5298,5.82842,24.52511C400.11052,237.86749,402.56746,240.42165,403.8287,242.24185Zm-5.91144-26.07109c.88083,2.52062,2.06242,6.25107,2.31891,7.21332.007.03007.1698-.04063.18926-.11674.70577-2.69042,3.63322-7.93324,5.464-10.39371.13084-.17694.26356-.35029.39451-.52535a37.76632,37.76632,0,0,0,4.98108-7.553c.83833-1.93861,2.13672-6.10071,2.21986-6.4934.00177-.01415-.04776-.01769-.1079-.0089a.30376.30376,0,0,0-.214.04428.25631.25631,0,0,0-.0566.04422.12808.12808,0,0,0-.03007.03709,30.53339,30.53339,0,0,1-5.02713,5.60024c-2.41089,1.967-4.29123,3.46518-5.74523,6.35194-.15571.30773-.34139.734-.5254,1.18331-.4421,1.04014-.88266,2.2801-.88791,2.30481-.01592.0796-.15383.19634-.20336.04428-.0408-.12913.24222-3.5324.267-3.99412a44.84889,44.84889,0,0,0-.76066-8.21985,25.7235,25.7235,0,0,1,.16273-10.33711c.06368-.27412.14157-.5484.22116-.819.06014-.207.1079-.36615.17506-.57311.01062-.03537-.04062-.19634-.10077-.21762-3.6226,4.4009-5.66922,12.45453-4.78291,18.66143A70.43965,70.43965,0,0,0,397.91726,216.17076Zm5.22512-13.66083c0,.91975-.01763,1.6981-.06367,2.18807l.00354.00348c-.00183.01244-.00183.02836-.00354.04068-.00536.05307.14681-.04239.14681-.04239l.03544-.03892a47.316,47.316,0,0,1,6.56768-6.81892c1.875-1.55128,3.849-3.04065,5.60549-4.71758a17.58733,17.58733,0,0,0,4.28946-8.39845,2.55342,2.55342,0,0,0,.05661-.4086.3544.3544,0,0,0-.21752.06191c-.2494.32541-.50241.64917-.74656.97994a17.30163,17.30163,0,0,1-4.87844,4.37962c-3.3025,2.08371-5.61969,3.66335-7.4876,6.19457-.01409.01946-.03007.03886-.04416.06014-.08491.15389-.25295.0796-.2016-.08142.56775-1.83784.81008-2.984,1.20448-4.60249.64563-2.66561.93926-6.18927,1.93877-8.533a11.85723,11.85723,0,0,1,2.69567-3.88617.06986.06986,0,0,0,.02831-.03178.36991.36991,0,0,0,.016-.24587,3.42843,3.42843,0,0,0-.64563.2441,15.55209,15.55209,0,0,0-7.32487,8.00222,16.24962,16.24962,0,0,0-1.217,6.68454c-.00171.76415.023,1.53006.05838,2.29244C403.04864,197.72336,403.14056,200.4616,403.14238,202.50993Zm7.16037-13.18855a.13986.13986,0,0,0,.07949.0053.29476.29476,0,0,0,.04079-.03183c.94274-.73054,4.71034-3.65976,6.007-4.967a29.63224,29.63224,0,0,0,4.82725-5.95926,32.1842,32.1842,0,0,1,5.11193-6.09187c.1645-.14681.28655-.24587.45282-.39451a.29148.29148,0,0,0,.02471-.23166,24.89108,24.89108,0,0,0-9.66489,4.67507c-4.97053,3.93033-6.67393,11.87076-6.872,12.95324C410.308,189.29485,410.30275,189.32138,410.30275,189.32138Zm55.9964,43.26786c.3892-.58549-.58184-.95518-.83479.06185C465.22722,233.59748,465.90829,233.1729,466.29915,232.58924Zm10.59724-24.50212c-.37677-.19635-1.92634,1.69273-1.67864,1.99874A7.0243,7.0243,0,0,0,476.89639,208.08712Zm.33254-.33432c.23349.122,1.26119-.437,1.0701-.58731-.18927-.15207-1.39728-.711-1.4221-.36969C476.84161,207.35127,476.99367,207.63075,477.22893,207.7528Zm18.665,16.36187c-.48643.02123-1.01361.72518-.865.73408.35023.01763.61727.26886.89857.2069C496.444,224.94073,496.38028,224.09521,495.8939,224.11467Zm-6.76414-17.61781c-.41922.01067-.5254.467-.12211.674a1.48571,1.48571,0,0,0,1.01886-.15743c.27777-.17511.60147-.39268.54133-.81721-.03544-.25825-.63679-.987-.322-1.26649.33962-.3043.68278.168,1.01532.03886.40512-.15738.368-.3891.38041-.734.01581-.47754-.17517-1.10553-.72876-1.10553-.4122,0-1.12859,1.1037-1.16043,1.171a1.2454,1.2454,0,0,0,.007.934C490.00534,205.8053,489.90977,206.47569,489.12976,206.49686Zm9.168.07606c-.01244.25477.7234,2.02716.79769,2.51006.07435.48289.22642,1.92981.61556,1.78123.24587-.09557.22287-.98177.16981-1.32492a17.87564,17.87564,0,0,0-.7323-3.007c-.19634-.60147-1.04893-2.56484-1.33194-2.49591-.25118.06025.42275,1.42929.52181,1.875A1.8122,1.8122,0,0,1,498.29777,206.57292Zm-4.84488-23.63715c.45282.17164.451-.67388-.31845-1.29833-.7642-.62264-1.78306-.32011-1.50712-.01228A8.99542,8.99542,0,0,0,493.45289,182.93577Zm-20.86017-5.991c-.90919-.58731-.14853-1.39739-.87547-1.94214a2.29778,2.29778,0,0,0-2.29066.44917c-.61385.79427.79244.53071,1.30187.75713.56957.25112,1.79185,1.30187,2.00936,1.08961C472.95362,177.08447,472.6936,177.03848,472.59272,176.94473Zm5.52594-2.78063c-1.2241-.559-5.83367-.53425-5.71338.665.099,1.02422,2.66212.062,3.32544.00536C476.3958,174.77617,479.19949,174.71957,478.11866,174.1641Zm-13.48754,53.635c-.06014-.22812-.45984-.191-.36079.01952.09911.21043-.12028.42452.08485.68808a.92184.92184,0,0,0,1.141.01415.44335.44335,0,0,0-.0655-.59428C465.20959,227.81688,464.69126,228.02737,464.63112,227.79913Zm-1.77587-9.16972c.3803,0,.36615-.28473.5872-.27412.22288.00885.0408.28838.4263.28838.38212,0,.78365-.9853-.44575-.9853C462.42188,217.65837,462.5546,218.61532,462.85525,218.62941Zm1.5955,1.01886c-.76408-.19634-.60854.23885-1.07717.29009-.77664.085-.08667-.57311-.4688-.87558-.1681-.13261-.62446.53242-.658.9481-.02123.19988-.02654.87741.30247.89863s2.05889.21934,2.63564.35018C465.84461,221.41187,465.15835,219.83052,464.45075,219.64827Zm-8.517,9.18216c.23525,0,.40506-.835.26-1.24527-.14676-.41038-.90382-.10265-.971.08844C455.15721,227.86635,455.69671,228.83043,455.93374,228.83043Zm-11.16327-.08314c.03371-.35913.00364-1.40977-.24759-1.61313-.25112-.20171-.21757.17854-.39793.15737-.13974-.01592-.12747-.50418-.3043-.50236-.17689,0,.06014.8349.24941,1.31951C444.25932,228.59512,444.7263,229.38939,444.77047,228.74729Zm-.26881-2.55068a10.98887,10.98887,0,0,0,.382-2.54184c-.06014-.66691-.41557-1.29657-.50578-1.25058-.12039.06191.05478.46167.076,1.10907a9.02757,9.02757,0,0,1-.42447,2.09078C444.02755,225.90469,444.31593,226.58576,444.50166,226.19661Zm-29.80685-6.18573a52.9337,52.9337,0,1,1,15.50391,37.45724A52.61892,52.61892,0,0,1,414.69481,220.01088Zm16.314,35.048,5.75407-5.75407a43.15139,43.15139,0,0,1-3.18388-3.76937,2.89281,2.89281,0,0,1-1.20989-.81013c-.49174-.61385-.74994-1.51237-.98354-1.51237-.2352.00177-.01935.57129-.543.6474-.71284.10431-1.71926-1.668-2.112-2.31365-.46344-.76061-1.2241-.76768-1.59733-1.48059-.10784-.20513-.36615-.83484-.60489-.46161-.39445.63325-1.74762-1.37976-2.09255-1.24173-.35559.13791-.04251.55713-.24239.734-.38732.345-1.52646-1.54238-1.95275-1.34958-.39976.1822-.49174.42458-.51479.92511-.02117.52.62263,1.8573.39622,1.96166-.32182.14681-1.96868-4.04708-1.6096-4.23817.2016-.1079.16981.19109.39794.05484.23531-.14151-.16445-.4316-.27229-.88625-.11321-.47577-.52541-.48644-.56079-1.01-.03178-.52187.7128-.3467.70406-.60147a.91055.91055,0,0,1,.26876-.72694c.24592-.21231.8208.01056.94462-.72528.10613-.62789.42275-.04588.48826.421.07606.54121,1.45924.67741,1.52646.306.04063-.23526-.559-.22641-.559-.43514-.00172-.39976.76066-.01768,1.2807.02825.22641.01946.63507-.34669,1.15152-.07954a4.19007,4.19007,0,0,0,1.28242.49351,42.32384,42.32384,0,0,1-2.089-12.09192h-8.105A50.3366,50.3366,0,0,0,431.00881,255.05889Zm33.433-46.9506c.05661.08667-.5306.62092-.8313,1.13925a11.40313,11.40313,0,0,1,2.9133-.67576v-8.1261a19.52482,19.52482,0,0,0-11.89552,4.93858l5.73638,5.73643a11.567,11.567,0,0,1,2.14738-1.39744c.19988-.099.40148-.191.605-.27766C463.50978,208.75928,464.36762,207.99508,464.44185,208.10829Zm-20.02864,30.29693a2.05644,2.05644,0,0,1-.039.47051c.421.51651.85088,1.02417,1.3037,1.51231l5.747-5.74694a21.81329,21.81329,0,0,1-5.30832-10.89087.33464.33464,0,0,1-.42105-.14327c-.11668-.2016.05312-.40678.30082-.612-.08314-.61019-.14328-1.22752-.17518-1.852h-3.826c.039.60854.283,1.48583-.11856,1.79184-.33072.25124-.79947-.00353-1.09846.03715-.734.09906-.90211.98525-.70749,1.58671a2.34691,2.34691,0,0,1,.23349,1.15506c-.0655.41032-.28838.73048.36079,1.07364.59439.31137,1.55665,1.53183,1.47705,1.74237-.1026.27064-.69339-.25294-.73048.237-.023.30065.872-.085.82069.9339a4.07284,4.07284,0,0,0,.29009,1.64857,5.11547,5.11547,0,0,1,.72523,2.36147,5.19613,5.19613,0,0,0,.17871,2.4021C443.7835,236.88047,444.40967,237.50128,444.41321,238.40522Zm-4.77766-13.67145c-.47234-.54127.31308-2.08017.42977-2.38264.12565-.32016.83849-.73231,1.05247-1.20818h-3.405a30.22407,30.22407,0,0,0,.658,5.24464C439.188,226.68658,440.75882,226.01972,439.63555,224.73377Zm-2.13683,21.8966a.5708.5708,0,0,1-.08131.03538q.46433.52792.94633,1.03826l.64917-.64917C438.40437,246.671,437.8437,246.42867,437.49872,246.63037Zm13.92622-41.24965-5.73108-5.731a29.84287,29.84287,0,0,0-7.97934,19.22912h4.01535c.67216-1.08248.444-1.90682.66862-2.53653a9.33359,9.33359,0,0,1,.90212-1.6892c.29539-.47582.63153-1.01178,1.25063-1.01532,1.30889-.00708,1.63431-.69168,2.464-1.07192.82953-.38031,2.29773-.605,2.13141-1.03837-.11321-.29181-3.0636.85258-3.12728.62971-.11149-.39086.93036-.35377,1.36909-.75a1.01586,1.01586,0,0,1,.2529-.17152A21.901,21.901,0,0,1,451.42494,205.38072Zm-1.033,5.36321a2.43221,2.43221,0,0,0,.237-.11674,3.58585,3.58585,0,0,1,2.82663-.2158,11.67,11.67,0,0,1,2.02887,1.41331c.17865.13614.2635-.1168,1.09846-.24234.34846-.05135.42811.29894.9251.36969a2.4357,2.4357,0,0,0,.5148.02654l-4.99535-4.99347A19.80182,19.80182,0,0,0,450.39193,210.74393Zm-5.625,6.17146a1.68269,1.68269,0,0,0-1.62021.75,1.652,1.652,0,0,0-.2247,1.21338h2.89919c.02836-.54834.07778-1.09138.14511-1.62734A3.42515,3.42515,0,0,0,444.76693,216.91539Zm8.26235,16.12313,5.73993-5.74174a11.55884,11.55884,0,0,1-1.23295-1.83955l-.00171.00354a1.37048,1.37048,0,0,0-.21226.31126c-.11846.25648.03537,1.11089-.32017,1.477-.45818.474-1.68919-1.04363-2.0784-1.16921a.6029.6029,0,0,0-.75347.58366c.0707.43691-.01775.61208-.20878.651-.19109.03715-1.15335-.61738-.72341-.78183.50053-.18927-.131-.62092-.3468-.78891-.3714-.28655-.95153-.01945-1.224-.39976a2.41631,2.41631,0,0,0-1.01178-.75176,1.50237,1.50237,0,0,0-1.04893-.07783c-.29009.15561-.60318-.161-.8208-.37322-.12023-.11675-.24051-.25295-.36787-.38561A19.55827,19.55827,0,0,0,453.02928,233.03852Zm5.74518-9.91446c.00182-.04953.00536-.10077.01072-.15212.00171-.01415.00171-.02825.00354-.04068.00348-.03886.00873-.07778.01227-.11675a.45877.45877,0,0,0,.00707-.04953l.01073-.07423a.32614.32614,0,0,0,.007-.04069c.00171-.01415.00525-.03007.00707-.04416q.01335-.07968.03179-.154v-.00354c.01072-.0477.023-.09546.03725-.13974.00349-.01592.00874-.02825.01228-.04234.01072-.0319.01951-.062.03189-.092l.01592-.04245a.83752.83752,0,0,1,.03715-.07965l.016-.03356a.72422.72422,0,0,1,.06009-.09192.28651.28651,0,0,1,.29009-.09557,6.662,6.662,0,0,0,.70046.17152.55711.55711,0,0,0,.50064-.237,1.53471,1.53471,0,0,0,.1786-.28826.70925.70925,0,0,0,.0796-.27594.24536.24536,0,0,0-.01946-.10442c-.04251-.08668-.15925-.11492-.3892-.03532-.0477.016-.09369.03178-.14145.04422a1.23434,1.23434,0,0,1-.27948.0477.6322.6322,0,0,1-.13084-.00707.46387.46387,0,0,1-.32381-.18927.6963.6963,0,0,1-.07241-.1362.80064.80064,0,0,0-.09558-.17689,1.64034,1.64034,0,0,0-.5731-.44392,2.2035,2.2035,0,0,1-.329-.22824,1.43582,1.43582,0,0,1-.15566-.15561c-.04069-.046-.07965-.09021-.12028-.13266-.016-.01592-.03179-.03007-.04776-.04422-.02653-.02653-.05135-.05135-.0796-.07606-.01946-.01774-.04063-.03538-.06014-.05135-.023-.01935-.046-.03715-.069-.05478-.02471-.01946-.04776-.03543-.07258-.05307-.01946-.01243-.04063-.02653-.0618-.039a.75314.75314,0,0,0-.08148-.0477l-.05307-.02653c-.03007-.01415-.06185-.02836-.09186-.04069-.01427-.0053-.02836-.00884-.04251-.0142-.03543-.01062-.0707-.02294-.10613-.03007l-.02123-.00354a.9062.9062,0,0,0-.82782.28484l-.01062.00884a1.73571,1.73571,0,0,0-.12912.14328l-.01415.01586c-.04245.05489-.085.1115-.1273.177a.042.042,0,0,1-.01073.01581q-.06358.10083-.1273.21762a4.45151,4.45151,0,0,0-.25471.56073c-.658,1.7228-1.42039,1.19569-1.2948,1.80959.01415.07241.19988.12194.4688.14322.10784.00879.23.01415.35725.01415.12913,0,.2671-.00354.40512-.01238.13974-.00708.28119-.01951.41911-.03715.069-.0089.1362-.01945.2017-.03007.04069-.00536.07778-.01243.11675-.01946.03714-.00707.07423-.01415.11149-.023l.09723-.02123c.04251-.01061.08137-.023.12028-.0336.02471-.00708.04953-.01421.07076-.02129a1.39135,1.39135,0,0,0,.16809-.06367,2.79509,2.79509,0,0,1,.267-.10614l.00878-.00171a1.7366,1.7366,0,0,1,.25124-.06368.89237.89237,0,0,1,.45282.01415.818.818,0,0,1,.40866.30248A1.59633,1.59633,0,0,1,458.77446,223.12406Zm7.74939-24.946V190.0696a29.84327,29.84327,0,0,0-19.231,7.97923l5.73285,5.73108A21.776,21.776,0,0,1,466.52385,198.178Zm0-10.37436v-8.10836a40.18667,40.18667,0,0,0-26.561,11.02348l5.731,5.72925A32.10131,32.10131,0,0,1,466.52385,187.80365ZM438.362,192.31781a40.18428,40.18428,0,0,0-11.01994,26.561h8.10665a32.10854,32.10854,0,0,1,8.64437-20.83ZM427.342,221.143a40.08808,40.08808,0,0,0,2.19161,12.03885c.04781-.00354.092-.00536.13974-.00707a5.076,5.076,0,0,0,2.441-.41215c.79781-.61556.06014-2.81778.56078-3.73581.61733-1.1356,2.15971-3.82956,2.62326-3.8473.41032-.01587.39268.29014.60135.33961a32.31661,32.31661,0,0,1-.44934-4.37613Zm39.18182,41.44771a42.43817,42.43817,0,0,1-28.16188-11.685l-5.754,5.75407a50.34318,50.34318,0,0,0,33.91589,14.03583Zm0-10.37072a31.97129,31.97129,0,0,1-19.45029-7.40623,3.61479,3.61479,0,0,1,.31491.43519c.37318.64381,1.67151,1.95281.84552,2.47639-.68632.43337-1.82374.14145-2.46053.1309-.70223-.0089-1.72286,1.04-2.32422,1.14444a3.01827,3.01827,0,0,1-1.921-.21762,3.66877,3.66877,0,0,1-.65265-.39086l-.91273.91267a40.19364,40.19364,0,0,0,26.561,11.02171Zm0-2.84962a8.49963,8.49963,0,0,1-3.2742-.2247c-.85076-.589-1.86437-1.16738-1.97929-1.62375-.20524-.81018-1.31426-1.41861-1.31426-2.17745,0-.8438,1.16562-1.11974.85436-1.97586-.24941-.68095.41391-1.53354,1.6274-2.12793a21.84782,21.84782,0,0,1-9.41211-4.99872l-5.74346,5.74346a29.7281,29.7281,0,0,0,19.24156,7.96514Zm1.75293-10.83421c.86314-.1451,1.77946-.39451,2.5577-.47228.85259-.08491-.03532,1.12853.47057,1.17805.60489.06014,3.0919.48461,3.26707-.07959.14327-.46344.17688-.67217.71113-.78714a5.7363,5.7363,0,0,0,2.6567-.83844c.30784-.23526.94291-.32016,1.125-.66862.18225-.34852-.13084-1.99709-.74463-1.72817-.29893.13266-.65972.559-1.29833.88094-.57842.29-.98879.42265-1.39911-.12747-.375-.50053.21923-.89321.52706-1.22929.47582-.52187.90737-1.05075,1.43631-1.05075.20519,0,1.29834-.543,1.20641-1.04-.12039-.64387-1.39037.05837-1.68577-.207-.20513-.18225-.00354-.64563-.16279-.71638-.14853-.069-.61727.57128-.25466.91809.1875.18036-.3043.68272-.85612.32182-.42453-.2812-.53425,1.26655-.4971,1.54956.03725.283.62263.20514.23359.71456-.391.513-.536.13272-.82433.38385-.3467.30429-.42447.421,0,.86143.33961.35023-.19988,1.01537-.32553.39274-.08313-.41392-.95335-.28833-1.1178-.75707-.16981-.4829-.87741-.43514-1.73707-.87558-.651-.33437-.56785.6527.536.90382.93744.21409.88973.32553.62081.91273-.21933.48118-.17683-.36969-1.29126-.665-.71638-.18927-.74993-.57134-1.3142-.56432-.57134.00536-.38389.54657-.98707.40512-.45631-.108-.52706.50761-.948.68632-.51308.21933-.4829,1.148-1.00477,1.40446-.77647.38031-2.36854.09375-2.296-.6757s.108-1.34432.55371-1.615c.39257-.23526,1.04.45454,1.58489.21049.56957-.25294.42629-.85966.08131-1.2488-.10259-.13267-.52-.33962-.51125-.47052.0089-.161.8208-.23708,1.23117-.513a11.12231,11.12231,0,0,0,1.06485-1.17635c.22459-.17506.66509-.21933.70577-.382.05661-.207-.31137-.58378-.27594-.83672s.12377-.44747.32017-.43332c.19634.01592.42977.582.30429.71816-.14327.15389.10249.41391.36969.30418.26876-.10967,1.22222-.48284,1.49993-.55542.37671-.10077-.09375-.95335.02836-1.10553.11492-.14327.22641.04605.3714-.099.145-.145-.29716-.28832-.22641-.59787.05135-.23349,1.04893-.50412.77476-.68106-.27412-.1786-.64381.3379-.86315.43513-.49715.2194-.73938-.32364-.72357-.73584.0089-.19982.27948-.90736.04251-1.04539-.32906-.18926-.38384.65271-.43519.81727a1.23445,1.23445,0,0,0,.07258,1.2435c.19634.36615.09551,1.60606-.28656,1.74226-.40683.14682-.58554-.62971-.77652-.94982a.30171.30171,0,0,0-.10077-.115l-.01073-.00531a.0955.0955,0,0,0-.04941-.0089h-.00183a.10823.10823,0,0,0-.05306.02654l-.01415.01243a.3666.3666,0,0,0-.05843.0707c-.03179.04958-.08314.1362-.12548.21049a2.65533,2.65533,0,0,0-.16633.39623.36013.36013,0,0,1-.28832.25477,11.449,11.449,0,0,1-1.263.07423c-.16456,0-.329-.00353-.49174-.01055a3.92125,3.92125,0,0,0,.23526.7093c.22464.42453.65442.76769.582,1.08077-.07258.3148-1.385.59964-1.493.36969-.13443-.28655.33072-.86143.29357-1.12145-.06716-.47405-.306-.75707-.27594-1.08607a11.43616,11.43616,0,0,1-6.136-2.55251l-5.74174,5.74174a19.55247,19.55247,0,0,0,10.32832,4.78475c.55541-.33962.78354-.94639,1.22227-.61739C466.87761,239.33386,467.71959,238.62986,468.27678,238.53611Zm.5112,13.682v8.10841a40.2237,40.2237,0,0,0,9.51641-1.41326c-.63325-.53778-.92157-1.40977-1.70517-1.67864-1.34786-.46344-1.71048-1.29308-.98171-2.4959.3944-.64917.23885-.90565-.22288-1.59727a3.97358,3.97358,0,0,0-1.81666-1.45577A32.10447,32.10447,0,0,1,468.788,252.21812Zm3.89152-2.66737a1.26789,1.26789,0,0,0-1.18341-.20525c-1.31785.35737-.8773-.68985-2.70811-.42275V249.954A30.27914,30.27914,0,0,0,472.6795,249.55075Zm30.0226,7.109-5.75408-5.75407a42.81268,42.81268,0,0,1-10.01523,7.08071,20.146,20.146,0,0,1-3.81187,2.08718,3.82728,3.82728,0,0,1-1.50883.49.86909.86909,0,0,1-.46864-.14858,42.37849,42.37849,0,0,1-12.35547,2.17563v8.10493A50.33545,50.33545,0,0,0,502.7021,256.65976Zm-11.34353-58.62331a.14118.14118,0,0,1-.06551.0938,32.51122,32.51122,0,0,1,3.59425,4.67325c.12393-.15737.22116-.29711.39269-.10077.28655.32719-.29883.92158.55022.76592.51114-.09375.40678.56067-.00718.911.26183.47217.51479.94982.75358,1.43443.29888.13449.52529.29722.57128.49179a14.26541,14.26541,0,0,1,.45991,1.83076,32.48554,32.48554,0,0,1,1.0649,3.13435c.4175-.35725.888-.16273.93749.43337a3.55952,3.55952,0,0,1-.39976,1.776,32.08827,32.08827,0,0,1,.65271,5.39848h8.10658a40.5562,40.5562,0,0,0-3.4298-15.21029c-.16091.12912-.37671.13974-.64917.48472-.41031.51816-1.07363-.12918-1.438-.582-.67924-.83844-2.27839-3.19631-2.99826-3.31488-.60146-.09906-1.05075-.88083-1.684-1.01-.63137-.12913-1.42033-.48472-1.52293-1.15335a1.07391,1.07391,0,0,0-1.05954-1.07546,3.06922,3.06922,0,0,1-1.90682-1.03118l-1.94043,1.94048A.19978.19978,0,0,1,491.35857,198.03645Zm5.14553,49.22363.44392.44393A40.16933,40.16933,0,0,0,507.96973,221.143h-8.10658a32.1094,32.1094,0,0,1-8.64432,20.83181l2.92562,2.92562c.02128-.04068.04063-.08131.06009-.122a4.74017,4.74017,0,0,0,.17871-1.65388c.0247-.30778,1.141-.23349,1.22056.27412a14.82292,14.82292,0,0,0,.67559,1.806A3.26734,3.26734,0,0,1,496.5041,247.26008Zm-6.1556,5.05886c-.214.51479-1.29834,1.44162-1.11079,1.74591a40.6861,40.6861,0,0,0,6.11133-4.76l-5.73108-5.72931c-.39976.37329-.8119.73231-1.23112,1.08613-.09911.65625-.0089,1.17093.79781,1.42033.87022.26892,2.32244,1.15335,2.01643,2.01119-.34315.76773-1.1922,1.91743-1.60258,2.67986C489.25,251.424,490.60675,251.70167,490.3485,252.31894Zm1.33725-33.54271a.42819.42819,0,0,1-.05843.10259h5.96993c-.03184-.86143-.10436-1.714-.207-2.5577-.04776.08844-.09911.17688-.13974.26355-.44575.92694-.513.36793-.48107-.03532a5.99079,5.99079,0,0,1,.42983-1.523c-.046-.276-.09558-.5484-.15035-.82075a2.08919,2.08919,0,0,1-.842.63679c-.2635.13437-.51291.7553-.61031.99232-.11492.28656-.77116-.06721-1.31066.19281-.94628.45636-1.91572.52535-1.224,1.50529C493.50413,218.15713,492.00237,217.98207,491.68575,218.77623ZM489.618,199.6497l-5.731,5.731a22.04686,22.04686,0,0,1,2.61254,3.56252,3.35962,3.35962,0,0,1,2.1863,1.13737c.41922.54121,1.62911,1.62375,1.44332,2.10847-.1132.29711.13974.66509.41574.85961.42276.29545.72169.28837.95336-.007.42275-.5395.483-1.26827,1.04367-1.72817.68632-.566,2.0925,1.06839,2.09078,1.36732-.00182.29888-.36443.36969-.46874.90035-.14145.72522-.76409,1.59019-.0566,1.83247,1.03124.352,1.16213-.05295,1.65741-.77824.22813-.33437.17871-.87387.42447-1.20459a2.08706,2.08706,0,0,1,.59439-.43519,29.73145,29.73145,0,0,0-1.53537-4.66263,1.4046,1.4046,0,0,0-.55-.34316c-.3698-.12205-.161-.45283-.64563-.605-.55548-.17506-.77128-.33431-.82252-1.309-.04079-.78537.66326.25825.83833.12205a.53094.53094,0,0,0,.10441-.12912A30.111,30.111,0,0,0,489.618,199.6497Zm-6.95341,7.78117a1.96827,1.96827,0,0,1-.695-.13266l-1.8945,1.89272c.36267.09724.76415-.03725,1.217.16445.50418.221.25825-1.408,1.02942-1.25942.78719.15035.98879.65624.3379.90211-.52181.16981.12918.6049-.50235.819-.57493.19634.467.704.45819.93042-.01073.31308-.78543.42983.37848.7889,1.16208.35908.00348-.97823.18036-1.16567.21586-.22824.83673.36079,1.0083.10083.06363-.09558.17866-.26174.32011-.45283A19.61647,19.61647,0,0,0,482.66455,207.43087Zm-2.95392,30.09169c.01409.398-.38738.07954-.50943.21575a17.64913,17.64913,0,0,0,3.70751,1.77067,4.75644,4.75644,0,0,0,2.23058.07424c.803-.15914,1.02588.21055,1.40082.19634.53424-.0194.88094-.74109,1.19049-1.18513.82069-1.17092.66509-1.3283.88265-1.51054.27766-.23349,1.08431,1.55835.98172,2.694-.01764.18042-.03892.34846-.06368.50942l.08667.08668a29.84377,29.84377,0,0,0,7.97929-19.231h-6.16273a13.67871,13.67871,0,0,1,.96761,1.60258c.31127.64038.49534,1.65741,1.01886,1.707.84369.0796,1.71225.7783,1.73707,1.3655.04953,1.22764-3.75887,1.52475-4.25951,1.36738-.42093-.13267-.70041-.161-.72865.49881-.0319.74817-1.37622.75353-1.90516,1.201-.59428.50235-.65973,1.42044-1.05772,2.06071a14.62188,14.62188,0,0,1-2.02893,1.98111c-.91621.64038-2.64084.67216-1.85193,1.09492.56249.30082,1.83966.40684,1.67858.10972-.1839-.34138.09729-.37322.31309-.09375.16633.21044.76591-.20341.75364-.589-.01244-.36439-.092-.95872.24576-.98177.5484-.03532,1.125-.64381,1.39745-.5872.30955.06368.72877.75176.41385,2.84779a10.68021,10.68021,0,0,1-1.71219,4.21523c-.43154.704-.8632.16627-1.44161-.1309a18.42844,18.42844,0,0,0-2.61972-.61556C481.94469,238.06383,479.6983,237.213,479.71063,237.52256ZM518.33879,221.143h-8.10311a42.44852,42.44852,0,0,1-11.68679,28.16187l5.75407,5.75407A50.32605,50.32605,0,0,0,518.33879,221.143ZM504.303,184.96475l-6.00348,6.00343a20.41079,20.41079,0,0,0,3.0406,3.65091c.59793.61019,1.233,1.20812,1.76542,1.74762.51115.51474,3.78523,4.5884,3.152,5.17914-.046.04428-.09546.085-.145.12559a42.79408,42.79408,0,0,1,4.12136,17.20738h8.10493A50.31816,50.31816,0,0,0,504.303,184.96475Zm-35.515-7.53359a42.36164,42.36164,0,0,1,19.09126,5.06422,5.95873,5.95873,0,0,0,1.438-.32016c.72175-.33608,2.14031.428,2.82491.82605.62435.36079,1.10907.895,1.79539,1.2806a4.79592,4.79592,0,0,1,2.07834,2.66748c.24946,1.14085.97287,1.06308.61208,1.5248-.18043.2299.09552.31834.44039.52353l5.63561-5.63379A50.32663,50.32663,0,0,0,468.788,169.328Zm0,10.37249a32.04486,32.04486,0,0,1,18.34652,6.55724c-.58013-.76774-1.1675-1.562-1.4399-1.85381-.497-.52889-2.35788-1.17988-2.17027-1.4823.18562-.3043,1.84137,1.01709,2.13141.78532.3484-.27937-.83136-1.7971-.74287-1.85553a7.76194,7.76194,0,0,1,2.20571,2.48c.28655.42629,1.04721.21043,1.63978.62263.5217.36615.55713.95164.9958,1.32841.07076.06191.9994.59792.4599.536-.15565-.01769-.3945-.34852-.5731-.18042-.11144.10613.06721.6757.38738,1.29833l2.69224-2.694c-.391-.79244-1.16213-1.83783-1.69992-1.9705-.55542-.1362-.89681.33078-1.27888.64735-.38207.31662-.85966.42275-.91975.21049a10.0488,10.0488,0,0,1,.04953-1.07717c-.039-.30955-.2813-.55365-.36267-.85259-.1928-.70406.09375-1.48932-.33437-1.9564a12.7544,12.7544,0,0,1-1.15323-1.87847,6.17049,6.17049,0,0,1-1.1675-2.47644,40.15794,40.15794,0,0,0-17.06581-4.29649Zm0,10.37436a21.78027,21.78027,0,0,1,13.4981,5.6019l5.7329-5.73108a29.84751,29.84751,0,0,0-19.231-7.97923Zm0,10.392a11.53318,11.53318,0,0,1,2.26938.45985c.1928-.47229.6757-.70749,1.07192-.97635.4688-.31845.80842-.67753.7412.18744a1.67464,1.67464,0,0,1-.62971,1.2241,11.52109,11.52109,0,0,1,2.25175,1.29834c.15383.11492.30419.2352.45283.3573l.77829-.77834a.31721.31721,0,0,1-.0141-.08668c.0141-.4421.65442-.96933,1.3938-1.293L479.631,206.435c-.05661-.01238-.11846-.023-.191-.0319-.33962-.04234-.82252.66161-1.15324.46709-.37334-.21768,1.11609-1.53011,1.78123-1.27716.09021.0336.18916.07252.29181.1132l.32193-.322a19.52021,19.52021,0,0,0-11.89375-4.93858Zm-1.13207,2.20753a9.2171,9.2171,0,0,0-2.75587.41739c-.11674.12741-.20524.23354-.13791.329.22287.32552.90211-.35726.99227.27074.06721.45631-.75176.12023-.67747.45631.06008.26881.62794.15743.64209.52712a1.85653,1.85653,0,0,1-.61727,1.18159c-.36444.23349-2.30664.49-2.49237.941a3.32055,3.32055,0,0,1-.63679,1.07375c-.33072.34852-1.88918,1.27352-1.89272,1.51414-.00879.5678.74828-.15566.95872-.37854.33436-.35377.79426-.352,1.29485-.63855.6898-.39274.95518.98171.2158,1.03124-.46173.03178-.85076,1.32841-1.57428,1.079-.18213-.06368-.69693-.38213-.80842-.05307-.11846.35018,1.07546.40507,1.45051.65271.95336.62971-.72346.58549-.99232.757-.26538.16981-.13443.536.22824.38743.35017-.1451.826-.51125,1.04356.08314.29363.80477-1.32487,3.74106-1.79538,3.43152-.25648-.168-.52181.0708-.76237.17334a9.33488,9.33488,0,0,0,1.1922,1.85381c.31845-.5254.82069-1.26832,1.033-1.27357.30065-.00884.19988-.24587.31309-.45813.13974-.25648.497.01238.52181-.33785.02471-.34847.91626-.849,1.01885-1.362.05307-.276-.27594-.55022-.13973-.77835a.69972.69972,0,0,1,.46526-.3803c.17854-.06191.6013.359.73048.17688.12912-.18219.75884-.04245,1.23991.26174.21934.13973.64563-.02118.90747.35023.36262.51125-.01768.55542.04771.66862.06368.11321.22116-.06368.31662.03007.20353.19817-.94451.87033-.81361,1.23649.12912.36438-.97287,2.16861-1.27535,2.45516-.41568.37853-1.102-.04422-1.37262.03361-.29186.08313-.34847.33254-.79776.22287a1.85357,1.85357,0,0,0-1.14621.2388,9.11518,9.11518,0,0,0,7.5442,2.17038,2.70235,2.70235,0,0,0,.48638-1.33908,2.3065,2.3065,0,0,1,.12918-.83484c.11846-.19817.87194-1.125,1.1727-1.11261.26355.01062.444.24228.82422.12382.73767-.23177,1.194-.03537,1.20111.283.01056.444-.92865.31662-.88973.566.02471.17506.70577.43873.92864.184a1.17333,1.17333,0,0,0,.24764-1.22227c-.29545-.37323-.27771-.52712.14682-.38213.26179.09021.26-.94274.50943-1.339.33962-.53242-.62789-.15925-1.03119-.10264-.38041.05312-.69521-.75884-.70406-1.04357-.00707-.20519.7217.72523,1.08956.74463a1.0055,1.0055,0,0,0,.91273-.81533c.0089-.35388-.79245-.40158-.91444-.83141-.06716-.23532.65088-.00183.5961-.23349-.046-.20342.07258-.69345-.38025-.888-.45111-.1928-.865-1.63795-1.22592-1.73706-.32016-.08668-.5872.34669-.78355.50589-.19457.15748-.50589-.11492-.34315-.26527a3.34533,3.34533,0,0,0,.88094-1.04363c.18744-.61207.97453.03184.83479-.82251-.1503-.92517-.93926-.74646-.57306-1.19221a.63886.63886,0,0,0-.66685-1.04362c-.352.06722-.72169-.50589-.75884-1.00117-.023-.2724-.80488-.23-.77481-.51833.062-.589-.82069-.65088-1.36019-.61019a3.11479,3.11479,0,0,1-1.69992-.99587c-.11492-.20524-.86486.18043-.61728-.612.2441-.78006.98343.14151,1.2948-.08314a.50557.50557,0,0,0,.17689-.67575C467.77266,210.78284,467.71423,210.77754,467.65591,210.77754Zm-35.048-27.41365,5.754,5.75407a42.43959,42.43959,0,0,1,28.16188-11.6868V169.328A50.32637,50.32637,0,0,0,432.608,183.36389Zm-15.63675,35.51493h8.105a42.43823,42.43823,0,0,1,11.685-28.16l-5.75407-5.754A50.335,50.335,0,0,0,416.97121,218.87882Z" transform="translate(-391.65376 -167.04978)"/></g><g id="RU"><path class="cls-2" d="M586.93738,192.257q0,5.79565-2.73926,9a9.47189,9.47189,0,0,1-7.60547,3.2041,9.5754,9.5754,0,0,1-7.61523-3.1748q-2.77-3.17432-2.80957-8.89063v-4.92529q0-5.93408,2.75-9.26709a10.40689,10.40689,0,0,1,15.21094-.05908q2.76855,3.27393,2.80859,9.1875Zm-5.835-4.82617a11.82974,11.82974,0,0,0-1.1084-5.7959,4.09125,4.09125,0,0,0-6.86328-.06885,11.23842,11.23842,0,0,0-1.14746,5.56787V192.257a10.704,10.704,0,0,0,1.12793,5.56787,3.823,3.823,0,0,0,3.48144,1.79,3.72676,3.72676,0,0,0,3.38184-1.75049,10.50768,10.50768,0,0,0,1.12793-5.4292Zm25.87988,6.60644q0,5.04346-1.73047,7.73389a5.72867,5.72867,0,0,1-5.15332,2.68994,4.98228,4.98228,0,0,1-4.19336-2.11621v9.94922H590.3075V182.66374h5.18261l.19727,1.958a5.023,5.023,0,0,1,4.37207-2.35352,5.86209,5.86209,0,0,1,5.15234,2.49219q1.73145,2.49243,1.77051,7.63525Zm-5.57812-1.40429a10.10136,10.10136,0,0,0-.68262-4.39112,2.39709,2.39709,0,0,0-2.30371-1.28613,2.66268,2.66268,0,0,0-2.5127,1.44434v10.02832a2.66431,2.66431,0,0,0,2.55176,1.38476,2.32129,2.32129,0,0,0,2.30469-1.40478,11.12844,11.12844,0,0,0,.64258-4.3711Zm20.95312-5.30127h-6.94238V204.0656h-5.59766V182.66374h12.54Zm12.13281,16.73389a7.81915,7.81915,0,0,1-.47461-1.66163,4.78327,4.78327,0,0,1-4.07421,2.05713,6.02839,6.02839,0,0,1-4.46094-1.78027,6.25189,6.25189,0,0,1-1.77051-4.6084,6.47919,6.47919,0,0,1,2.14648-5.20215,9.38783,9.38783,0,0,1,6.18165-1.87939h1.70019v-1.7207a3.2272,3.2272,0,0,0-.49414-2.03711,1.7718,1.7718,0,0,0-1.44434-.59375q-2.09619,0-2.09668,2.45263h-5.59765a6.19717,6.19717,0,0,1,2.22558-4.89551,8.2845,8.2845,0,0,1,5.62793-1.92822,7.60857,7.60857,0,0,1,5.44922,1.82959,6.86991,6.86991,0,0,1,1.92774,5.23194v10.06787a10.51657,10.51657,0,0,0,.792,4.33154v.33643ZM631.18738,200.07a3.1196,3.1196,0,0,0,1.582-.376,2.65063,2.65063,0,0,0,.96875-.88965v-4.45068h-1.34473a2.87309,2.87309,0,0,0-2.24511.90967,3.49763,3.49763,0,0,0-.82032,2.4331Q629.328,200.07023,631.18738,200.07Zm27.79785,3.99561h-5.59766v-8.22852h-4.92578v8.22852h-5.61718V182.66374h5.61718v8.56445h4.92578v-8.56445h5.59766Zm14.14941-21.40186h5.57813V204.0656h-5.57813V190.91179l-4.98437,13.15381h-5.61719V182.66374h5.61719v13.13379Zm18.22364,6.32959q0-2.354-1.78028-2.354a2.03656,2.03656,0,0,0-1.52246.564,2.23425,2.23425,0,0,0-.55371,1.63184h-5.59765a6.01725,6.01725,0,0,1,2.05664-4.72754,7.73465,7.73465,0,0,1,5.32129-1.81983,8.75462,8.75462,0,0,1,5.61718,1.63184,5.55615,5.55615,0,0,1,2.03711,4.59912,4.93214,4.93214,0,0,1-.73144,2.62061,5.31908,5.31908,0,0,1-2.03711,1.90869,4.90229,4.90229,0,0,1,3.085,4.96484,5.72609,5.72609,0,0,1-2.17578,4.688,8.96923,8.96923,0,0,1-5.81543,1.76025,8.14774,8.14774,0,0,1-5.50879-1.82959,6.13378,6.13378,0,0,1-2.126-4.8955h5.59766a2.37949,2.37949,0,0,0,.63281,1.76025,2.32445,2.32445,0,0,0,1.7207.6333,1.86647,1.86647,0,0,0,1.56348-.68262,2.96236,2.96236,0,0,0,.5332-1.86914q0-2.51146-1.958-2.59131h-2.78907v-3.71826H689.578Q691.35925,191.24846,691.35828,188.99333Zm18.87793,15.07227a7.81794,7.81794,0,0,1-.47461-1.66163,4.78329,4.78329,0,0,1-4.07422,2.05713,6.02839,6.02839,0,0,1-4.46094-1.78027,6.25193,6.25193,0,0,1-1.77051-4.6084,6.47917,6.47917,0,0,1,2.14649-5.20215,9.38778,9.38778,0,0,1,6.18164-1.87939h1.70019v-1.7207a3.22714,3.22714,0,0,0-.49414-2.03711,1.77177,1.77177,0,0,0-1.44433-.59375q-2.09619,0-2.09668,2.45263h-5.59766a6.19715,6.19715,0,0,1,2.22559-4.89551,8.28448,8.28448,0,0,1,5.62793-1.92822,7.60859,7.60859,0,0,1,5.44922,1.82959,6.86994,6.86994,0,0,1,1.92773,5.23194v10.06787a10.51674,10.51674,0,0,0,.792,4.33154v.33643ZM706.93347,200.07a3.11957,3.11957,0,0,0,1.582-.376,2.65055,2.65055,0,0,0,.96875-.88965v-4.45068h-1.34472a2.87311,2.87311,0,0,0-2.24512.90967,3.49767,3.49767,0,0,0-.82031,2.4331Q705.0741,200.07023,706.93347,200.07Zm11.65723-17.40625h5.61719v16.75342h4.96484V182.66374h5.59766v16.793h2.92773l-.39551,10.958H732.12V204.0656H718.5907Zm32.01074,0h5.57813V204.0656h-5.57813V190.91179l-4.98437,13.15381h-5.61719V182.66374h5.61719v13.13379Zm24.61328,0V204.0656h-5.55859v-7.37793H767.579l-3.48047,7.37793h-5.63769l3.97558-8.44581a6.41378,6.41378,0,0,1-2.502-2.38378,6.55282,6.55282,0,0,1-.87988-3.39209,6.69815,6.69815,0,0,1,2.18554-5.18262,8.41581,8.41581,0,0,1,5.9043-1.99756Zm-10.5625,7.35791a2.7291,2.7291,0,0,0,.68164,1.88916,2.24554,2.24554,0,0,0,1.751.76172h2.57129v-5.3999h-2.59082a2.177,2.177,0,0,0-1.73145.80078A2.90659,2.90659,0,0,0,764.65222,190.02165Zm-177.71484,43.188q0,5.79565-2.73926,9a9.47189,9.47189,0,0,1-7.60547,3.2041,9.57543,9.57543,0,0,1-7.61523-3.1748q-2.77-3.17433-2.80957-8.89063V228.423q0-5.93409,2.75-9.26709a10.40689,10.40689,0,0,1,15.21094-.05908q2.76855,3.27392,2.80859,9.1875Zm-5.835-4.82617a11.82974,11.82974,0,0,0-1.1084-5.7959,4.09125,4.09125,0,0,0-6.86328-.06885,11.2384,11.2384,0,0,0-1.14746,5.56787v5.12305a10.704,10.704,0,0,0,1.12793,5.56787,3.823,3.823,0,0,0,3.48144,1.79,3.72678,3.72678,0,0,0,3.38184-1.75049,10.50768,10.50768,0,0,0,1.12793-5.4292Zm18.60058-3.58008a6.48929,6.48929,0,0,1,5.48926,2.71972,12.13512,12.13512,0,0,1,2.02735,7.40723v.29688a11.22607,11.22607,0,0,1-2.31446,7.437,7.76484,7.76484,0,0,1-6.29,2.76953,7.50548,7.50548,0,0,1-6.2998-3.00684q-2.30419-3.00585-2.30469-8.248v-.89014q.03955-7.16016,2.05762-11.3042a9.13516,9.13516,0,0,1,6.07226-5.19238,6.76688,6.76688,0,0,0,2.49219-1.13721,1.94478,1.94478,0,0,0,.55371-1.45361h4.47071a6.78007,6.78007,0,0,1-1.42481,4.71728q-1.42383,1.55274-5.083,2.36377a5.52961,5.52961,0,0,0-3.14453,1.94824,8.44128,8.44128,0,0,0-1.48437,3.96582A6.89712,6.89712,0,0,1,599.703,224.80339Zm-1.10742,4.64795q-2.86816,0-2.96679,5.04394v.73194a8.85228,8.85228,0,0,0,.76171,4.25244,2.42965,2.42965,0,0,0,2.22461,1.30566q2.90772,0,3.00684-5.1626v-.811Q601.622,229.45183,598.59558,229.45134Zm19.88184.39551h2.84765a8.2246,8.2246,0,0,1,5.95411,2.07714,7.35938,7.35938,0,0,1,2.15625,5.55811,7.18008,7.18008,0,0,1-2.18555,5.46924,8.2446,8.2446,0,0,1-5.9043,2.06689h-8.46582V228.28435h-4.94531v-4.668h10.543Zm0,4.64843v5.91407h2.92676a2.23317,2.23317,0,0,0,1.78027-.75147,3.19,3.19,0,0,0,.65332-2.15625q0-3.00587-2.57129-3.00635Zm21.94336,10.91846a8.7731,8.7731,0,0,1-6.72559-2.57129q-2.41406-2.57081-2.41308-7.35791v-1.70117q0-5.06323,2.21484-7.813a7.68264,7.68264,0,0,1,6.34961-2.74951,7.26865,7.26865,0,0,1,6.07226,2.57764q2.0376,2.57739,2.07715,7.63281v2.74512H636.86023a5.824,5.824,0,0,0,1.04785,3.48681,3.54488,3.54488,0,0,0,2.86817,1.10254,6.29373,6.29373,0,0,0,4.6875-1.91894l2.19629,3.38232a7.23619,7.23619,0,0,1-2.98731,2.30469A10.2564,10.2564,0,0,1,640.42078,245.41374ZM636.89929,232.28H642.497v-.51416a5.9852,5.9852,0,0,0-.63281-2.90771,2.20131,2.20131,0,0,0-2.05664-.98926,2.32744,2.32744,0,0,0-2.127,1.04834A7.22387,7.22387,0,0,0,636.89929,232.28Zm14.16993,8.08984a10.34623,10.34623,0,0,0,1.97753-3.18457,14.9148,14.9148,0,0,0,.69239-4.48974l.1582-9.0791h13.94531v16.75341h2.82813v11.07715h-5.59766v-6.42871H655.203v6.42871h-5.73632V240.36979Zm6.21093,0h4.98438V228.38347h-2.84864l-.01953,2.11621A20.87373,20.87373,0,0,1,657.28015,240.36979Zm26.29492-16.75341h5.57813v21.40185h-5.57813V231.86442l-4.98437,13.15381h-5.61719V223.61638h5.61719v13.13379Zm25.24707,21.40185h-5.59765v-8.22851h-4.92578v8.22851h-5.61719V223.61638h5.61719v8.56445h4.92578v-8.56445h5.59765Zm12.21192.39551a8.7731,8.7731,0,0,1-6.72559-2.57129q-2.41406-2.57081-2.41308-7.35791v-1.70117q0-5.06323,2.21484-7.813a7.68264,7.68264,0,0,1,6.34961-2.74951,7.26868,7.26868,0,0,1,6.07227,2.57764q2.03758,2.57739,2.07714,7.63281v2.74512H717.47351a5.824,5.824,0,0,0,1.04785,3.48681,3.5449,3.5449,0,0,0,2.86817,1.10254,6.29373,6.29373,0,0,0,4.6875-1.91894l2.19629,3.38232a7.23613,7.23613,0,0,1-2.98731,2.30469A10.25636,10.25636,0,0,1,721.03406,245.41374ZM717.51257,232.28h5.59766v-.51416a5.98509,5.98509,0,0,0-.63281-2.90771,2.20131,2.20131,0,0,0-2.05664-.98926,2.32745,2.32745,0,0,0-2.127,1.04834A7.224,7.224,0,0,0,717.51257,232.28ZM747.368,245.01823h-5.59765v-8.22851h-4.92578v8.22851h-5.61719V223.61638h5.61719v8.56445h4.92578v-8.56445H747.368Zm19.68848,0h-5.59766v-8.22851h-4.92578v8.22851h-5.61719V223.61638h5.61719v8.56445h4.92578v-8.56445h5.59766Zm9.52148-15.17138h2.86817a8.22923,8.22923,0,0,1,5.94336,2.07714,7.34054,7.34054,0,0,1,2.166,5.55811,7.17655,7.17655,0,0,1-2.18554,5.46924,8.29833,8.29833,0,0,1-5.94336,2.06689h-8.44629V223.61638H776.578Zm0,4.64843v5.91407h2.92774a2.2539,2.2539,0,0,0,1.81933-.77149,3.20359,3.20359,0,0,0,.65235-2.13623q0-3.00587-2.62988-3.00635Zm19.00879,10.52295h-5.59765V223.61638h5.59765Zm11.34082-15.05273,2.49219-6.34912h5.93457l-4.88574,10.46338,5.06348,10.93847H809.579l-2.63086-6.70556-2.61133,6.70556h-5.97363l5.06348-10.93847-4.84571-10.46338H804.535ZM586.85828,285.97038h-5.7959V273.64763h-8.584v12.32275H566.663V257.17106h5.81542V268.821h8.584V257.17106h5.7959Zm14.03125,0a7.81781,7.81781,0,0,1-.47461-1.66162,4.7833,4.7833,0,0,1-4.07422,2.05713,6.02836,6.02836,0,0,1-4.46094-1.78028,6.25191,6.25191,0,0,1-1.77051-4.60839,6.47915,6.47915,0,0,1,2.14649-5.20215,9.38784,9.38784,0,0,1,6.18164-1.8794h1.70019V271.175a3.22718,3.22718,0,0,0-.49414-2.03711,1.77177,1.77177,0,0,0-1.44433-.59375q-2.09619,0-2.09668,2.45264h-5.59766a6.19713,6.19713,0,0,1,2.22559-4.89551,8.28448,8.28448,0,0,1,5.62793-1.92822,7.60854,7.60854,0,0,1,5.44922,1.82959,6.8699,6.8699,0,0,1,1.92773,5.23193v10.06787a10.51674,10.51674,0,0,0,.792,4.33154v.33643Zm-3.30274-3.99561a3.11967,3.11967,0,0,0,1.582-.376,2.65064,2.65064,0,0,0,.96875-.88965v-4.45068h-1.34472a2.87314,2.87314,0,0,0-2.24512.90966,3.4977,3.4977,0,0,0-.82031,2.43311Q595.72742,281.975,597.58679,281.97477ZM609.243,264.56852h5.61719v16.75342h4.96484V264.56852h5.59766v16.793h2.92774l-.39551,10.958h-5.18262v-6.34912H609.243Zm32.01075,0h5.57812v21.40186h-5.57812V272.81657l-4.98438,13.15381h-5.61719V264.56852h5.61719v13.13379Zm19.708,0h5.57813v21.40186h-5.57813V272.81657l-4.98437,13.15381h-5.61719V264.56852h5.61719v13.13379Zm4.49024-8.70312a5.33524,5.33524,0,0,1-1.88867,4.25244,8.46913,8.46913,0,0,1-9.96875,0,5.333,5.333,0,0,1-1.88965-4.25244h4.09472a2.46164,2.46164,0,0,0,.74219,1.90869,2.90722,2.90722,0,0,0,2.04688.68262,2.844,2.844,0,0,0,2.01757-.68262,2.483,2.483,0,0,0,.73145-1.90869Z" transform="translate(-391.65376 -167.04978)"/></g></svg>