<svg xmlns="http://www.w3.org/2000/svg" viewBox="0 0 398.90854 128.39375"><defs><style>.cls-1{fill:#009edb;}</style></defs><g id="Layer_2" data-name="Layer 2"><g id="Emblem"><path id="emblem-2" data-name="emblem" class="cls-1" d="M367.95728,116.90512c.07086-.01592.1681.06186.20342.10259a22.36042,22.36042,0,0,1-9.725,5.75054,19.69142,19.69142,0,0,1-7.6787.54657,24.65985,24.65985,0,0,1-10.86245-4.23639c-1.98648-1.30547-3.95162-2.64267-5.91681-3.98a9.7537,9.7537,0,0,0-7.369-1.39026c-1.42039.15389-.34316.83666-.12559.94451a57.98274,57.98274,0,0,1,9.93392,6.18042c2.10488,1.54415,5.8602,5.165,5.8602,5.165l-2.809,2.40558s-2.14384-2.402-3.07774-3.33605a52.30531,52.30531,0,0,0-12.82959-9.93735.95429.95429,0,0,0-1.2629,0,52.33484,52.33484,0,0,0-12.8313,9.93735c-.93218.934-3.07592,3.33605-3.07592,3.33605L303.58,125.98817s3.75709-3.62089,5.862-5.165a57.97989,57.97989,0,0,1,9.93381-6.18042c.21763-.10785,1.2948-.79062-.12553-.94451a9.75345,9.75345,0,0,0-7.369,1.39026c-1.9653,1.3373-3.93215,2.6745-5.91863,3.98a24.64276,24.64276,0,0,1-10.86245,4.23639,19.6845,19.6845,0,0,1-7.67687-.54657,22.41683,22.41683,0,0,1-9.73393-5.76292.28081.28081,0,0,1,.21221-.09021c.23525.10431.38024.1786.60848.29717a19.35194,19.35194,0,0,0,12.90553,1.50524,43.02186,43.02186,0,0,0,8.701-3.01407c2.02893-.865,4.03293-1.81838,6.122-2.50823a28.81167,28.81167,0,0,1,16.4114-.36969,2.042,2.042,0,0,0,.27948.04947,2.08953,2.08953,0,0,0,.27948-.04947,28.81185,28.81185,0,0,1,16.41145.36969c2.089.68985,4.09307,1.64326,6.12188,2.50823a42.98419,42.98419,0,0,0,8.70109,3.01407,19.352,19.352,0,0,0,12.90553-1.50524C367.577,117.08372,367.72213,117.00943,367.95728,116.90512Zm12.99757-11.8a17.65206,17.65206,0,0,1-5.82842,3.07957,33.61075,33.61075,0,0,1-9.17326,1.37263,109.3296,109.3296,0,0,0-11.968,1.03649l-.06368.01072c-.25123.04063-.36615-.0655-.28484-.15218a.20215.20215,0,0,1,.06014-.04068c3.56429-1.30541,5.98585-4.07018,7.80954-7.54061,1.263-2.40387,3.33074-7.10022,3.90562-7.86785a.31263.31263,0,0,0-.03892-.2017c-.27063.0885-4.19389,3.42809-5.97512,5.082-2.20935,2.05358-4.28957,4.247-6.50058,6.30065-3.45457,3.2989-8.4215,4.74759-10.22037,5.21457a.4017.4017,0,0,0-.14156.06362.606.606,0,0,0-.09021.16279.01633.01633,0,0,0,.0141.023l.08142.01945c1.39562.31834,5.42689,1.19392,7.49467,1.74586a51.12093,51.12093,0,0,0,9.66318,1.79887A23.23593,23.23593,0,0,0,381.21841,105.144c.00707-.01067.01409-.0283.00707-.03184A.33168.33168,0,0,0,380.95485,105.10512Zm12.14852-18.626a31.19869,31.19869,0,0,1-6.96584,6.07772,44.36058,44.36058,0,0,1-7.15489,3.90037,38.005,38.005,0,0,0-8.78776,5.1615c-.1786.14682-.32719.2582-.50761.39086-.09723.07076-.1928-.04952-.08667-.17329.13443-.15571,4.18864-4.30709,5.40737-13.10541.42447-3.07073.48461-6.38732,1.48048-9.34661a.2973.2973,0,0,0-.06186-.24056c-.00536-.00708-.03189.01061-.03714.01768a40.63466,40.63466,0,0,0-6.61551,12.01935c-.819,2.34544-1.60081,4.70331-2.448,7.03825a22.38349,22.38349,0,0,1-5.089,8.55234c-.03532.03715-.21939.23-.21939.23a.45024.45024,0,0,0-.04063.1451c0,.00885.01238.02653.01946.02471.34852-.06014.57664-.09375.80134-.14145,2.71342-.56078,5.41092-1.20995,8.14014-1.66449a26.64109,26.64109,0,0,0,12.22276-5.20219,29.03242,29.03242,0,0,0,8.84254-10.34606,19.50184,19.50184,0,0,0,1.35312-3.37138A.2855.2855,0,0,0,393.10337,86.47912Zm5.3207-20.93612c-1.171,3.734-3.28834,6.757-6.37681,10.00816-2.4215,2.49933-7.08243,7.22576-9.23506,10.50338-.0602.092-.22122.05135-.16108-.11492a27.25523,27.25523,0,0,0,.85794-11.81062c-.53065-3.336-1.99172-6.9764-2.35262-11.05891-.00353-.01945.00183-.023-.00525-.04245-.02128-.053-.11149-.17688-.17163-.18213a3.10517,3.10517,0,0,0-.13792.38737,36.7733,36.7733,0,0,0-1.72109,8.10311c-.17688,3.329.451,7.60954.17689,11.0358-.31845,3.95869-.589,7.87493-2.40387,11.46575a.55482.55482,0,0,0-.02123.05832c-.03709.09557.06368.27245.06368.27245a.0776.0776,0,0,0,.023-.0089c1.45575-.92859,5.60371-3.37491,8.33836-5.20036a32.23578,32.23578,0,0,0,8.79467-8.39856A25.13682,25.13682,0,0,0,398.6663,65.9463a3.55639,3.55639,0,0,0-.03532-.52712C398.59206,65.40326,398.43286,65.51647,398.42407,65.543Zm-8.79831,2.25352a.11365.11365,0,0,1-.069.07606c-.08485.02476-.12554-.07789-.12377-.10088a18.47285,18.47285,0,0,0,.069-3.35722c-.28484-3.911-2.64444-7.1497-4.714-10.40444a49.71343,49.71343,0,0,1-3.74643-6.665c-.00707-.01763-.16444-.11674-.21226-.09546a21.76887,21.76887,0,0,0,.12913,2.24638c.58018,5.59847,2.36318,11.08008,4.20809,16.39377a22.75322,22.75322,0,0,1,1.47169,10.36541c-.04063.31308-.05135.34669.0796.44227.00525.00353.01232-.0089.01586-.00354,1.26119-1.82021,3.71818-4.37437,5.23049-6.21751,1.63978-1.99532,9.89849-11.40909,5.83013-24.52512a9.32186,9.32186,0,0,0-.64027-1.6238c-.06367.00177-.17335.16456-.18578.2069.02482,9.4351-4.53882,13.48583-6.44387,19.94031C390.16172,65.70391,389.87516,66.84488,389.62576,67.79652Zm-7.11255-29.32578a30.52915,30.52915,0,0,1-5.02708-5.60023.16346.16346,0,0,0-.03007-.0371.25948.25948,0,0,0-.0566-.04422.29086.29086,0,0,0-.214-.04245c-.06014-.01061-.10967-.00707-.10613.00708.08131.39268,1.37965,4.55479,2.21814,6.49339a37.76157,37.76157,0,0,0,4.98108,7.553c.13084.17506.2635.34841.39451.52535,1.83065,2.46047,4.75815,7.70329,5.464,10.39371.01935.07612.18208.14682.18916.115.25648-.96054,1.4399-4.691,2.31719-7.20989a70.11908,70.11908,0,0,0,2.05015-7.76874c.88614-6.20689-1.16031-14.26053-4.78291-18.66143-.06014.02128-.1115.18225-.10094.21763.06733.207.115.36615.17517.5731.0796.27058.15566.543.21934.8207a25.685,25.685,0,0,1,.1645,10.33539,44.53867,44.53867,0,0,0-.75889,8.21985c.02305.46172.30607,3.865.26356,3.99412-.0477.15207-.18567.03532-.20159-.04428-.00537-.02471-.44575-1.26467-.888-2.303-.184-.45111-.36969-.8774-.5254-1.18513C386.80444,41.93592,384.92415,40.4377,382.51321,38.47074Zm-3.99584-25.12835a11.83817,11.83817,0,0,1,2.6975,3.88617c.9994,2.34373,1.293,5.86739,1.93866,8.533.39445,1.61844.63673,2.76466,1.20459,4.60249.05124.161-.11675.23532-.20171.08143a.72418.72418,0,0,0-.04416-.06014c-1.86791-2.53123-4.1851-4.11087-7.4876-6.19458a17.27,17.27,0,0,1-4.87667-4.37961c-.24587-.33078-.49881-.65453-.74822-.98a.35478.35478,0,0,0-.21757-.06191,2.55926,2.55926,0,0,0,.0566.40861,17.58737,17.58737,0,0,0,4.28947,8.39844c1.75641,1.67693,3.73045,3.1663,5.60543,4.71759a47.41907,47.41907,0,0,1,6.5678,6.81891l.03537.03892s.15036.09546.14682.0424c-.00177-.01233-.00177-.02825-.00354-.04069l.00354-.00348c-.046-.49-.06363-1.26832-.06363-2.18807.00172-2.04833.0937-4.78828.18391-6.67387.03532-.76238.06185-1.52829.05832-2.29243a16.25016,16.25016,0,0,0-1.21692-6.68454,15.552,15.552,0,0,0-7.32481-8.00223,3.6317,3.6317,0,0,0-.64563-.24593.37142.37142,0,0,0,.01763.2477A.06276.06276,0,0,0,378.51737,13.34239ZM364.19322,6.72872a32.25007,32.25007,0,0,1,5.112,6.09186,29.58306,29.58306,0,0,0,4.82719,5.95926c1.2948,1.30724,5.06422,4.23645,6.007,4.967a.19686.19686,0,0,0,.04068.03184.14035.14035,0,0,0,.0796-.00531s-.00525-.02653-.00707-.04251c-.19817-1.08248-1.90152-9.0229-6.872-12.95324a24.89189,24.89189,0,0,0-9.66505-4.67507c-.03527.06539.00353.237.02481.23349C363.90672,6.481,364.027,6.5819,364.19322,6.72872ZM286.13737,115.21228a51.12316,51.12316,0,0,0,9.66324-1.79887c2.06778-.55194,6.099-1.42752,7.49462-1.74586l.08131-.01945a.01634.01634,0,0,0,.01426-.023.61055.61055,0,0,0-.09032-.16279.39622.39622,0,0,0-.14328-.06362c-1.7971-.46526-6.764-1.91567-10.21865-5.21457-2.21106-2.05364-4.29112-4.24707-6.50047-6.30065-1.78123-1.65387-5.70454-4.99346-5.97512-5.08368a.31855.31855,0,0,0-.039.20342c.57482.76763,2.64271,5.464,3.90562,7.86785,1.82374,3.47043,4.24524,6.2352,7.80942,7.54061a.19926.19926,0,0,1,.06014.04068c.08142.08668-.03355.19281-.28473.15218l-.06368-.01072a109.32923,109.32923,0,0,0-11.968-1.03649,33.612,33.612,0,0,1-9.17326-1.37263,17.65093,17.65093,0,0,1-5.82837-3.07957.3324.3324,0,0,0-.27068.00707c-.00708.00354,0,.02117.00718.03184a23.23579,23.23579,0,0,0,21.51978,10.06825Zm-3.099-8.18265c.22459.0477.45282.08131.80129.14145.00707.00182.01951-.01586.01951-.02653a.45075.45075,0,0,0-.04079-.14328s-.18391-.1928-.22106-.23a22.434,22.434,0,0,1-5.08721-8.55234c-.84722-2.33494-1.63088-4.69281-2.44809-7.03825a40.65806,40.65806,0,0,0-6.6155-12.01935c-.00536-.00707-.0319-.02476-.03715-.01768a.29564.29564,0,0,0-.06191.23874c.99587,2.96111,1.05595,6.2777,1.48053,9.34843,1.21874,8.79832,5.27289,12.9497,5.40738,13.10541.10613.12377.00879.24405-.08668.17329-.17865-.13266-.329-.24233-.50771-.39086a38.00416,38.00416,0,0,0-8.7876-5.1615,44.35951,44.35951,0,0,1-7.155-3.90037,31.29187,31.29187,0,0,1-6.96745-6.07772.28155.28155,0,0,0-.25123-.03361,19.64838,19.64838,0,0,0,1.35323,3.37138,29.04717,29.04717,0,0,0,8.84243,10.34606,26.64159,26.64159,0,0,0,12.22276,5.20219C277.62743,105.81968,280.32493,106.47067,283.03835,107.02963ZM260.53862,88.95905c2.73459,1.82545,6.8826,4.27177,8.33831,5.20036a.07747.07747,0,0,0,.023.0089s.10083-.17688.06368-.27245a.5527.5527,0,0,0-.02128-.05832c-1.81484-3.59082-2.08542-7.50706-2.40376-11.46575-.27422-3.42626.35372-7.70682.17689-11.0358a36.96793,36.96793,0,0,0-1.72115-8.10311,3.05,3.05,0,0,0-.138-.38737c-.06009.00525-.1503.12912-.17153.18213-.007.01946-.00177.023-.0053.04245-.36085,4.08251-1.82374,7.72286-2.35252,11.05891a27.25454,27.25454,0,0,0,.85784,11.81062c.06008.16627-.10265.207-.161.11492-2.15275-3.27762-6.81356-8.00405-9.23517-10.50338C250.70027,72.3,248.5829,69.277,247.41192,65.543c-.00889-.02653-.168-.13974-.20524-.12382a3.28749,3.28749,0,0,0-.03714.52712,25.13758,25.13758,0,0,0,4.5743,14.61419A32.23365,32.23365,0,0,0,260.53862,88.95905Zm-1.43636-12.26521c.00354-.00536.01056.00707.01592.00536.13089-.0974.12028-.131.0796-.44409a22.75782,22.75782,0,0,1,1.47168-10.36541c1.84491-5.31369,3.62786-10.7953,4.2081-16.39194a21.79142,21.79142,0,0,0,.12907-2.24821c-.04771-.02128-.20513.07783-.21221.09728A49.68352,49.68352,0,0,1,261.04805,54.01c-2.06961,3.25474-4.431,6.49345-4.714,10.40444a18.48265,18.48265,0,0,0,.06893,3.35722c.00182.023-.03886.12564-.12377.10088a.11357.11357,0,0,1-.06893-.07606c-.2494-.95164-.536-2.09261-.9004-3.3219-1.90322-6.45448-6.46691-10.50521-6.44221-19.94031-.01227-.04234-.122-.20513-.18561-.2069a9.31883,9.31883,0,0,0-.64038,1.6238c-4.06842,13.116,4.1904,22.5298,5.82841,24.52512C255.38408,72.31947,257.841,74.87363,259.10226,76.69384Zm-5.91144-26.07109c.88083,2.52061,2.06242,6.25106,2.3189,7.21331.007.03008.16981-.04062.18927-.11674.70577-2.69042,3.63322-7.93324,5.464-10.39371.13084-.17694.26356-.35029.39451-.52535a37.76632,37.76632,0,0,0,4.98108-7.553c.83833-1.9386,2.13672-6.10071,2.21986-6.49339.00176-.01415-.04776-.01769-.1079-.0089a.30368.30368,0,0,0-.214.04427.2569.2569,0,0,0-.0566.04422.12813.12813,0,0,0-.03007.0371,30.53331,30.53331,0,0,1-5.02713,5.60023c-2.41089,1.967-4.29123,3.46518-5.74523,6.35194-.15571.30773-.34139.734-.5254,1.18331-.44211,1.04014-.88266,2.2801-.88791,2.30481-.01592.0796-.15384.19635-.20336.04428-.0408-.12913.24222-3.5324.267-3.99412a44.84889,44.84889,0,0,0-.76066-8.21985A25.7235,25.7235,0,0,1,255.63,25.804c.06368-.27411.14156-.5484.22116-.819.06014-.20695.1079-.36615.17506-.5731.01062-.03538-.04063-.19635-.10077-.21763-3.62261,4.4009-5.66922,12.45454-4.78291,18.66143A70.43933,70.43933,0,0,0,253.19082,50.62275Zm5.22512-13.66084c0,.91975-.01763,1.6981-.06367,2.18807l.00353.00348c-.00182.01244-.00182.02836-.00353.04069-.00537.05306.14681-.0424.14681-.0424l.03543-.03892a47.31642,47.31642,0,0,1,6.56769-6.81891c1.875-1.55129,3.849-3.04066,5.60549-4.71759a17.58734,17.58734,0,0,0,4.28946-8.39844,2.55365,2.55365,0,0,0,.05661-.40861.3544.3544,0,0,0-.21752.06191c-.24941.32542-.50241.64917-.74656.98a17.3016,17.3016,0,0,1-4.87844,4.37961c-3.3025,2.08371-5.61969,3.66335-7.4876,6.19458-.01409.01945-.03007.03885-.04416.06014-.08491.15389-.25295.07959-.2016-.08143.56775-1.83783.81008-2.984,1.20448-4.60249.64563-2.6656.93926-6.18926,1.93877-8.533a11.85723,11.85723,0,0,1,2.69567-3.88617.06984.06984,0,0,0,.0283-.03178.36988.36988,0,0,0,.016-.24587,3.42912,3.42912,0,0,0-.64563.2441,15.55208,15.55208,0,0,0-7.32487,8.00223,16.24956,16.24956,0,0,0-1.217,6.68454c-.00171.76414.023,1.53.05837,2.29243C258.3222,32.17535,258.41412,34.91358,258.41594,36.96191Zm7.16037-13.18855a.13992.13992,0,0,0,.07949.00531.2955.2955,0,0,0,.04079-.03184c.94274-.73054,4.71034-3.65975,6.007-4.967a29.63258,29.63258,0,0,0,4.82725-5.95926,32.18414,32.18414,0,0,1,5.11192-6.09186c.16451-.14682.28656-.24587.45283-.39451a.29151.29151,0,0,0,.02471-.23167,24.89122,24.89122,0,0,0-9.66489,4.67507c-4.97053,3.93034-6.67393,11.87076-6.872,12.95324C265.58156,23.74683,265.57631,23.77336,265.57631,23.77336Zm55.9964,43.26786c.3892-.58549-.58185-.95518-.83479.06185C320.50078,68.04946,321.18185,67.62488,321.57271,67.04122ZM332.16995,42.5391c-.37677-.19634-1.92634,1.69273-1.67864,1.99874A7.0243,7.0243,0,0,0,332.16995,42.5391Zm.33254-.33431c.23349.122,1.26119-.437,1.0701-.58732-.18927-.15206-1.39728-.711-1.4221-.36969C332.11517,41.80326,332.26723,42.08274,332.50249,42.20479Zm18.665,16.36187c-.48644.02122-1.01361.72517-.865.73407.35023.01763.61727.26886.89857.2069C351.71752,59.39271,351.65384,58.5472,351.16746,58.56666Zm-6.76414-17.61781c-.41922.01066-.52541.467-.12211.674a1.48575,1.48575,0,0,0,1.01886-.15742c.27776-.17512.60146-.39269.54132-.81721-.03543-.25826-.63678-.987-.322-1.2665.33962-.3043.68277.168,1.01532.03886.40512-.15737.368-.38909.38041-.734.01581-.47753-.17517-1.10553-.72877-1.10553-.41219,0-1.12858,1.10371-1.16042,1.171a1.24538,1.24538,0,0,0,.007.934C345.2789,40.25728,345.18333,40.92768,344.40332,40.94885Zm9.168.07606c-.01244.25477.7234,2.02716.79769,2.51.07435.4829.22642,1.92982.61556,1.78123.24587-.09557.22287-.98176.16981-1.32492a17.87661,17.87661,0,0,0-.7323-3.007c-.19634-.60147-1.04893-2.56483-1.332-2.4959-.25117.06025.42276,1.42928.52181,1.875A1.81206,1.81206,0,0,1,353.57133,41.02491Zm-4.84489-23.63716c.45283.17164.451-.67387-.31844-1.29833-.7642-.62264-1.78306-.32011-1.50712-.01227A8.99559,8.99559,0,0,0,348.72644,17.38775Zm-20.86016-5.991c-.90919-.58731-.14853-1.39739-.87547-1.94214a2.29779,2.29779,0,0,0-2.29067.44918c-.61384.79427.79245.53071,1.30188.75712.56957.25112,1.79184,1.30187,2.00936,1.08961C328.22718,11.53645,327.96716,11.49046,327.86628,11.39671Zm5.52594-2.78063c-1.2241-.559-5.83367-.53425-5.71339.665.09906,1.02422,2.66212.062,3.32544.00536C331.66936,9.22816,334.47305,9.17155,333.39222,8.61608Zm-13.48754,53.635c-.06014-.22813-.45985-.191-.36079.01951.09911.21044-.12028.42452.08485.68808a.92183.92183,0,0,0,1.141.01415.44335.44335,0,0,0-.0655-.59428C320.48315,62.26886,319.96482,62.47935,319.90468,62.25112Zm-1.77587-9.16973c.3803,0,.36615-.28473.5872-.27411.22288.00884.0408.28838.4263.28838.38212,0,.78365-.98531-.44576-.98531C317.69544,52.11035,317.82816,53.0673,318.12881,53.08139Zm1.5955,1.01886c-.76409-.19634-.60854.23885-1.07717.29009-.77664.085-.08668-.5731-.4688-.87558-.1681-.13261-.62446.53243-.658.94811-.02122.19988-.02653.8774.30248.89863.329.02117,2.05888.21934,2.63564.35017C321.11817,55.86385,320.43191,54.2825,319.72431,54.10025Zm-8.517,9.18216c.23525,0,.40506-.83495.26-1.24527-.14676-.41037-.90383-.10265-.971.08844C310.43077,62.31833,310.97027,63.28241,311.2073,63.28241ZM300.044,63.19928c.03372-.35914.00365-1.40978-.24758-1.61314-.25112-.20171-.21757.17854-.39794.15737-.13974-.01592-.12746-.50418-.30429-.50235-.17689,0,.06014.8349.2494,1.3195C299.53288,63.0471,299.99986,63.84137,300.044,63.19928Zm-.26881-2.55069a10.98822,10.98822,0,0,0,.382-2.54184c-.06014-.66691-.41557-1.29656-.50578-1.25057-.12039.06191.05478.46167.07595,1.10907a9.02824,9.02824,0,0,1-.42447,2.09078C299.30111,60.35668,299.58948,61.03774,299.77521,60.64859Zm-29.80685-6.18572A52.93374,52.93374,0,1,1,285.47228,91.9201,52.61893,52.61893,0,0,1,269.96836,54.46287Zm16.314,35.048,5.75408-5.75407a43.15126,43.15126,0,0,1-3.18388-3.76936,2.89287,2.89287,0,0,1-1.20989-.81014c-.49174-.61384-.74994-1.51236-.98354-1.51236-.2352.00177-.01935.57128-.543.6474-.71284.1043-1.71926-1.668-2.11195-2.31366-.46344-.76061-1.2241-.76768-1.59733-1.48058-.10784-.20514-.36615-.83485-.60489-.46162-.39445.63325-1.74762-1.37976-2.09255-1.24173-.35559.13791-.04251.55713-.24239.734-.38732.345-1.52646-1.54239-1.95275-1.34958-.39976.18219-.49174.42458-.51479.92511-.02117.52.62263,1.85729.39622,1.96165-.32182.14682-1.96868-4.04707-1.6096-4.23816.20159-.1079.16981.19109.39794.05483.23531-.14151-.16445-.4316-.2723-.88625-.1132-.47576-.5254-.48643-.56078-1.01-.03178-.52186.71279-.34669.70406-.60146a.91054.91054,0,0,1,.26876-.72694c.24592-.21232.8208.01055.94462-.72529.10613-.62789.42275-.04588.48825.421.07607.54122,1.45925.67742,1.52647.306.04063-.23525-.559-.22641-.559-.43513-.00172-.39976.76066-.01769,1.2807.02824.22641.01946.63507-.34669,1.15152-.07954a4.18981,4.18981,0,0,0,1.28242.49351,42.32384,42.32384,0,0,1-2.089-12.09192h-8.105A50.33664,50.33664,0,0,0,286.28236,89.51087Zm33.43305-46.9506c.05661.08667-.5306.62092-.8313,1.13925a11.403,11.403,0,0,1,2.9133-.67576v-8.1261a19.52484,19.52484,0,0,0-11.89553,4.93858l5.73639,5.73644a11.56651,11.56651,0,0,1,2.14738-1.39745c.19988-.099.40148-.191.605-.27765C318.78334,43.21126,319.64118,42.44706,319.71541,42.56027ZM299.68677,72.8572a2.05639,2.05639,0,0,1-.039.47051c.421.51651.85087,1.02417,1.3037,1.51232l5.747-5.74694a21.81347,21.81347,0,0,1-5.30833-10.89087.33463.33463,0,0,1-.421-.14328c-.11669-.20159.05312-.40678.30082-.612-.08314-.6102-.14328-1.22753-.17518-1.852h-3.826c.039.60854.283,1.48584-.11857,1.79185-.33072.25123-.79946-.00354-1.09845.03714-.734.09906-.90212.98525-.70749,1.58672a2.34687,2.34687,0,0,1,.23349,1.15506c-.0655.41031-.28838.73048.36079,1.07363.59439.31138,1.55664,1.53183,1.47705,1.74238-.1026.27063-.69339-.25295-.73048.237-.023.30065.872-.085.82069.9339a4.0728,4.0728,0,0,0,.29009,1.64857,5.11559,5.11559,0,0,1,.72523,2.36147,5.19612,5.19612,0,0,0,.17871,2.4021C299.05706,71.33245,299.68323,71.95326,299.68677,72.8572Zm-4.77766-13.67145c-.47234-.54127.31308-2.08017.42977-2.38264.12564-.32016.83849-.7323,1.05247-1.20818h-3.405a30.225,30.225,0,0,0,.658,5.24464C294.46159,61.13856,296.03238,60.47171,294.90911,59.18575Zm-2.13683,21.89661a.57191.57191,0,0,1-.08131.03537q.46433.52793.94633,1.03826l.64917-.64916C293.67793,81.123,293.11726,80.88065,292.77228,81.08236ZM306.6985,39.8327l-5.73108-5.731a29.84282,29.84282,0,0,0-7.97934,19.22912h4.01534c.67217-1.08248.444-1.90682.66863-2.53653a9.33416,9.33416,0,0,1,.90211-1.6892c.2954-.47582.63154-1.01178,1.25064-1.01532,1.30889-.00707,1.6343-.69167,2.464-1.07192.82953-.3803,2.29773-.605,2.13141-1.03837-.11321-.29181-3.0636.85258-3.12728.62971-.11149-.39086.93036-.35377,1.36909-.75a1.01606,1.01606,0,0,1,.25289-.17153A21.90123,21.90123,0,0,1,306.6985,39.8327Zm-1.033,5.36321a2.43221,2.43221,0,0,0,.237-.11674,3.58585,3.58585,0,0,1,2.82663-.2158,11.67058,11.67058,0,0,1,2.02887,1.41331c.17865.13615.2635-.1168,1.09845-.24233.34847-.05135.42812.29893.92511.36969a2.43623,2.43623,0,0,0,.51479.02653L308.301,41.4371A19.80137,19.80137,0,0,0,305.66549,45.19591Zm-5.625,6.17147a1.68269,1.68269,0,0,0-1.62022.75005,1.65208,1.65208,0,0,0-.2247,1.21337h2.8992c.02836-.54834.07778-1.09138.14511-1.62734A3.42492,3.42492,0,0,0,300.04049,51.36738Zm8.26235,16.12313,5.73992-5.74175a11.55879,11.55879,0,0,1-1.23294-1.83955l-.00171.00354a1.37077,1.37077,0,0,0-.21227.31126c-.11845.25649.03538,1.1109-.32016,1.477-.45819.474-1.6892-1.04362-2.0784-1.16921a.6029.6029,0,0,0-.75347.58366c.0707.43691-.01775.61208-.20878.651-.19109.03714-1.15335-.61739-.72341-.78184.50053-.18926-.13095-.62092-.3468-.7889-.37141-.28656-.95153-.01946-1.224-.39976a2.41641,2.41641,0,0,0-1.01178-.75177,1.50244,1.50244,0,0,0-1.04893-.07782c-.29009.1556-.60318-.161-.82081-.37323-.12022-.11675-.2405-.25295-.36786-.38561A19.55835,19.55835,0,0,0,308.30284,67.49051ZM314.048,57.576c.00183-.04952.00537-.10077.01073-.15212.00171-.01415.00171-.02824.00354-.04068.00348-.03886.00873-.07778.01227-.11675a.459.459,0,0,0,.00707-.04952l.01073-.07424a.32784.32784,0,0,0,.007-.04068c.00171-.01415.00525-.03007.00707-.04417q.01335-.07968.03179-.154v-.00354c.01072-.0477.023-.09546.03725-.13974.00349-.01592.00874-.02824.01227-.04234.01073-.03189.01952-.062.0319-.092l.01592-.04246a.84.84,0,0,1,.03714-.07965l.016-.03355a.72471.72471,0,0,1,.06008-.09193.28654.28654,0,0,1,.2901-.09557,6.65707,6.65707,0,0,0,.70046.17152.5571.5571,0,0,0,.50064-.237,1.53563,1.53563,0,0,0,.1786-.28827.70955.70955,0,0,0,.0796-.27594.24536.24536,0,0,0-.01946-.10442c-.04251-.08667-.15925-.11492-.3892-.03532-.04771.016-.0937.03178-.14145.04422a1.23378,1.23378,0,0,1-.27948.0477.63151.63151,0,0,1-.13084-.00707.46384.46384,0,0,1-.32381-.18927.696.696,0,0,1-.07242-.1362.80044.80044,0,0,0-.09557-.17689,1.64049,1.64049,0,0,0-.57311-.44392,2.20246,2.20246,0,0,1-.329-.22824,1.4357,1.4357,0,0,1-.15566-.1556c-.04069-.046-.07965-.09021-.12028-.13267-.016-.01592-.03179-.03007-.04776-.04422-.02653-.02653-.05135-.05135-.0796-.07606-.01946-.01774-.04063-.03537-.06014-.05135-.023-.01935-.046-.03715-.069-.05478-.0247-.01946-.04776-.03543-.07257-.05306-.01946-.01244-.04063-.02654-.0618-.039a.75323.75323,0,0,0-.08148-.04771l-.05307-.02653c-.03007-.01415-.06185-.02836-.09187-.04068-.01426-.00531-.02835-.00885-.0425-.01421-.03544-.01061-.0707-.02294-.10614-.03007l-.02122-.00354a.9062.9062,0,0,0-.82782.28484l-.01062.00885a1.73551,1.73551,0,0,0-.12912.14327l-.01415.01587c-.04246.05489-.085.11149-.12731.177a.04181.04181,0,0,1-.01072.01581q-.0636.10083-.1273.21763a4.45337,4.45337,0,0,0-.25472.56072c-.658,1.72281-1.42038,1.19569-1.29479,1.80959.01415.07241.19988.12194.4688.14322.10784.00879.22995.01415.35725.01415.12912,0,.2671-.00353.40512-.01238.13974-.00707.28119-.01951.41911-.03714.069-.0089.1362-.01946.2017-.03007.04069-.00537.07778-.01244.11675-.01946.03714-.00708.07423-.01415.11149-.023l.09723-.02122c.04251-.01062.08137-.023.12028-.03361.02471-.00708.04953-.01421.07076-.02128a1.393,1.393,0,0,0,.16809-.06368,2.79586,2.79586,0,0,1,.267-.10613l.00879-.00172a1.73783,1.73783,0,0,1,.25124-.06367.89225.89225,0,0,1,.45282.01415.81793.81793,0,0,1,.40866.30247A1.59623,1.59623,0,0,1,314.048,57.576Zm7.7494-24.946V24.52158a29.84331,29.84331,0,0,0-19.231,7.97924l5.73285,5.73107A21.776,21.776,0,0,1,321.79741,32.63Zm0-10.37437V14.14728a40.18661,40.18661,0,0,0-26.561,11.02347l5.731,5.72926A32.10135,32.10135,0,0,1,321.79741,22.25563Zm-28.16188,4.51416a40.18425,40.18425,0,0,0-11.01994,26.561h8.10665a32.10854,32.10854,0,0,1,8.64437-20.83ZM282.61559,55.59493a40.08808,40.08808,0,0,0,2.19161,12.03885c.04781-.00353.092-.00536.13974-.00707a5.076,5.076,0,0,0,2.441-.41214c.7978-.61556.06014-2.81778.56078-3.73582.61733-1.1356,2.15971-3.82956,2.62326-3.8473.41032-.01587.39268.29014.60135.33962a32.31676,32.31676,0,0,1-.44934-4.37614Zm39.18182,41.44771a42.43815,42.43815,0,0,1-28.16188-11.685l-5.754,5.75407a50.34313,50.34313,0,0,0,33.91589,14.03583Zm0-10.37072a31.97121,31.97121,0,0,1-19.45029-7.40623,3.61479,3.61479,0,0,1,.31491.43519c.37318.64381,1.67151,1.95282.84551,2.47639-.68631.43337-1.82374.14146-2.46052.1309-.70224-.0089-1.72286,1.04-2.32422,1.14445a3.01834,3.01834,0,0,1-1.921-.21763,3.66855,3.66855,0,0,1-.65266-.39086l-.91272.91267a40.19359,40.19359,0,0,0,26.561,11.02171Zm0-2.84961a8.49983,8.49983,0,0,1-3.2742-.2247c-.85076-.589-1.86437-1.16739-1.97929-1.62375-.20524-.81019-1.31426-1.41862-1.31426-2.17746,0-.8438,1.16562-1.11974.85436-1.97586-.24941-.68095.41391-1.53354,1.6274-2.12793a21.84791,21.84791,0,0,1-9.41211-4.99871l-5.74346,5.74345a29.7281,29.7281,0,0,0,19.24156,7.96514Zm1.75293-10.83421c.86314-.14511,1.77946-.39451,2.5577-.47229.85259-.0849-.03532,1.12853.47057,1.17806.60489.06014,3.09189.48461,3.26707-.0796.14327-.46344.17688-.67216.71113-.78714a5.73618,5.73618,0,0,0,2.6567-.83844c.30784-.23525.94291-.32016,1.125-.66862.18225-.34852-.13084-1.99709-.74463-1.72817-.29893.13267-.65973.559-1.29834.88094-.57841.29-.98878.42265-1.3991-.12746-.375-.50053.21923-.89322.52706-1.2293.47582-.52187.90737-1.05075,1.43631-1.05075.20518,0,1.29833-.543,1.20641-1.04-.12039-.64386-1.39037.05837-1.68577-.207-.20513-.18224-.00354-.64563-.16279-.71638-.14853-.069-.61727.57128-.25466.91809.1875.18037-.3043.68272-.85612.32182-.42453-.28119-.53425,1.26655-.49711,1.54957.03726.283.62264.20513.2336.71456-.391.513-.536.13272-.82434.38384-.34669.3043-.42447.421,0,.86143.33962.35023-.19988,1.01537-.32552.39274-.08314-.41391-.95336-.28832-1.1178-.75707-.16981-.4829-.87741-.43514-1.73707-.87558-.651-.33437-.56786.65271.536.90383.93744.21408.88973.32552.62081.91272-.21933.48119-.17683-.36969-1.29126-.665-.71638-.18927-.74994-.57134-1.3142-.56432-.57134.00536-.38389.54658-.98707.40512-.45631-.108-.52707.50761-.948.68632-.51307.21934-.48289,1.148-1.00476,1.40447-.77647.3803-2.36855.09375-2.296-.6757.07252-.76945.108-1.34433.55371-1.615.39257-.23525,1.04.45454,1.58489.2105.56957-.25295.42629-.85966.08131-1.24881-.10259-.13266-.52-.33962-.51125-.47052.0089-.161.8208-.23708,1.23117-.513a11.12136,11.12136,0,0,0,1.06485-1.17634c.22459-.17506.66509-.21934.70577-.382.05661-.207-.31137-.58378-.27594-.83672s.12377-.44747.32016-.43331c.19635.01592.42978.582.3043.71815-.14328.15389.10248.41391.36969.30419.26876-.10967,1.22222-.48284,1.49993-.55542.37671-.10077-.09375-.95336.02836-1.10553.11492-.14328.22641.046.3714-.099.14505-.145-.29717-.28832-.22641-.59787.05135-.23348,1.04893-.50412.77476-.68106-.27412-.1786-.64381.33791-.86315.43514-.49716.21939-.73938-.32365-.72357-.73584.0089-.19983.27948-.90737.04251-1.04539-.32906-.18927-.38384.6527-.43519.81726a1.23447,1.23447,0,0,0,.07257,1.2435c.19635.36615.09552,1.60606-.28655,1.74226-.40684.14682-.58554-.62971-.77653-.94981a.30158.30158,0,0,0-.10076-.115l-.01073-.00531A.09542.09542,0,0,0,324.9,64.915h-.00182a.10812.10812,0,0,0-.05306.02653l-.01416.01244a.36655.36655,0,0,0-.05842.07069c-.03179.04959-.08314.13621-.12548.2105a2.655,2.655,0,0,0-.16633.39622.36012.36012,0,0,1-.28832.25477,11.449,11.449,0,0,1-1.263.07424c-.16456,0-.329-.00354-.49174-.01056a3.92085,3.92085,0,0,0,.23526.70931c.22464.42452.65442.76768.582,1.08077-.07257.3148-1.385.59964-1.493.36968-.13443-.28655.33072-.86143.29357-1.12145-.06716-.47405-.306-.75706-.27594-1.08607a11.43616,11.43616,0,0,1-6.136-2.55251l-5.74175,5.74175a19.55256,19.55256,0,0,0,10.32832,4.78474c.55542-.33962.78355-.94639,1.22228-.61739C322.15117,73.78585,322.99315,73.08184,323.55034,72.9881Zm.51119,13.682v8.10841a40.2237,40.2237,0,0,0,9.51642-1.41325c-.63325-.53779-.92157-1.40978-1.70517-1.67864-1.34787-.46344-1.71048-1.29309-.98171-2.49591.3944-.64917.23885-.90565-.22288-1.59727a3.97353,3.97353,0,0,0-1.81666-1.45576A32.10445,32.10445,0,0,1,324.06153,86.6701Zm3.89153-2.66737a1.2679,1.2679,0,0,0-1.18342-.20524c-1.31784.35736-.87729-.68985-2.70811-.42276V84.406A30.27911,30.27911,0,0,0,327.95306,84.00273Zm30.02259,7.109-5.75407-5.75407a42.81268,42.81268,0,0,1-10.01523,7.08071,20.1469,20.1469,0,0,1-3.81187,2.08719,3.82743,3.82743,0,0,1-1.50883.49.86906.86906,0,0,1-.46864-.14858,42.37849,42.37849,0,0,1-12.35548,2.17563v8.10493A50.33538,50.33538,0,0,0,357.97565,91.11174ZM346.63213,32.48843a.1412.1412,0,0,1-.06551.09381,32.51155,32.51155,0,0,1,3.59425,4.67325c.12393-.15738.22116-.29712.39269-.10077.28655.32718-.29883.92157.55022.76591.51114-.09375.40678.56067-.00719.911.26184.47218.51479.94982.75359,1.43443.29888.13449.52529.29722.57128.4918a14.26375,14.26375,0,0,1,.4599,1.83076,32.48174,32.48174,0,0,1,1.06491,3.13434c.4175-.35725.888-.16273.93749.43337a3.55947,3.55947,0,0,1-.39976,1.776,32.08723,32.08723,0,0,1,.6527,5.39848h8.10659a40.55624,40.55624,0,0,0-3.4298-15.21029c-.16091.12913-.37671.13974-.64917.48472-.41032.51816-1.07364-.12918-1.438-.582-.67924-.83843-2.27839-3.19631-2.99826-3.31488-.60146-.099-1.05075-.88083-1.684-1.01-.63137-.12912-1.42033-.48472-1.52293-1.15334a1.07391,1.07391,0,0,0-1.05954-1.07546,3.06928,3.06928,0,0,1-1.90682-1.03119l-1.94043,1.94049A.19975.19975,0,0,1,346.63213,32.48843Zm5.14553,49.22364.44392.44392a40.16933,40.16933,0,0,0,11.02171-26.56106H355.1367a32.1093,32.1093,0,0,1-8.64431,20.83181l2.92562,2.92563c.02128-.04069.04063-.08132.06009-.122a4.73992,4.73992,0,0,0,.1787-1.65388c.02471-.30778,1.141-.23348,1.22057.27412a14.82048,14.82048,0,0,0,.67559,1.806A3.26744,3.26744,0,0,1,351.77766,81.71207Zm-6.1556,5.05886c-.214.51479-1.29834,1.44161-1.11079,1.74591a40.68616,40.68616,0,0,0,6.11133-4.76l-5.73108-5.7293c-.39976.37328-.8119.7323-1.23113,1.08613-.0991.65624-.00889,1.17092.79782,1.42033.87022.26892,2.32244,1.15334,2.01643,2.01118-.34315.76774-1.1922,1.91743-1.60258,2.67986C344.52354,85.87594,345.88031,86.15365,345.62206,86.77093Zm1.33725-33.54272a.42833.42833,0,0,1-.05843.10259h5.96993c-.03184-.86143-.10437-1.714-.207-2.5577-.04776.08844-.09911.17688-.13974.26356-.44575.92693-.513.36792-.48107-.03532a5.99045,5.99045,0,0,1,.42983-1.523c-.046-.276-.09558-.5484-.15035-.82075a2.089,2.089,0,0,1-.842.63679c-.2635.13438-.51291.7553-.61031.99232-.11492.28656-.77116-.06721-1.31066.19281-.94628.45636-1.91572.52535-1.22405,1.50529C348.77769,52.60911,347.27593,52.43405,346.95931,53.22821Zm-2.06779-19.12653-5.731,5.731a22.04686,22.04686,0,0,1,2.61254,3.56252,3.35965,3.35965,0,0,1,2.1863,1.13737c.41921.54122,1.62911,1.62375,1.44332,2.10847-.1132.29712.13974.66509.41574.85961.42275.29545.72169.28838.95335-.007.42276-.5395.483-1.26827,1.04368-1.72817.68632-.566,2.0925,1.06839,2.09078,1.36732-.00182.29888-.36444.36969-.46874.90035-.14146.72523-.76409,1.5902-.05661,1.83247,1.03124.352,1.16214-.053,1.65742-.77824.22812-.33436.17871-.87386.42447-1.20458a2.08709,2.08709,0,0,1,.59439-.4352,29.73284,29.73284,0,0,0-1.53537-4.66263,1.4046,1.4046,0,0,0-.55-.34316c-.36981-.122-.161-.45282-.64564-.60495-.55547-.17506-.77127-.33431-.82251-1.30894-.04079-.78537.66326.25825.83832.12205a.5306.5306,0,0,0,.10442-.12913A30.11127,30.11127,0,0,0,344.89152,34.10168Zm-6.95341,7.78117a1.968,1.968,0,0,1-.695-.13266l-1.8945,1.89273c.36267.09723.76414-.03726,1.217.16444.50418.22106.25825-1.408,1.02942-1.25942.78719.15036.98878.65625.3379.90212-.52181.16981.12918.60489-.50235.819-.57493.19635.467.704.45819.93042-.01073.31309-.78543.42983.37847.78891,1.16208.35907.00349-.97823.18037-1.16568.21586-.22823.83672.3608,1.0083.10083.06363-.09557.17866-.26174.32011-.45283A19.61713,19.61713,0,0,0,337.93811,41.88285Zm-2.95392,30.09169c.01409.398-.38738.07955-.50943.21575a17.64913,17.64913,0,0,0,3.70751,1.77067,4.75643,4.75643,0,0,0,2.23058.07424c.803-.15914,1.02587.21055,1.40082.19634.53424-.0194.88094-.74109,1.19049-1.18513.82069-1.17092.66508-1.32829.88265-1.51054.27766-.23349,1.08431,1.55836.98172,2.694-.01764.18042-.03892.34846-.06368.50943l.08667.08667a29.84377,29.84377,0,0,0,7.97929-19.231h-6.16273a13.67871,13.67871,0,0,1,.96761,1.60258c.31126.64038.49534,1.65741,1.01886,1.707.84369.07959,1.71225.77829,1.73707,1.36549.04952,1.22764-3.75887,1.52475-4.25951,1.36738-.42093-.13266-.70041-.161-.72865.49882-.0319.74816-1.37622.75353-1.90517,1.201-.59427.50235-.65972,1.42044-1.05771,2.06071a14.62131,14.62131,0,0,1-2.02893,1.98111c-.91621.64038-2.64084.67217-1.85193,1.09492.56249.30082,1.83966.40684,1.67858.10973-.1839-.34139.09729-.37323.31309-.09375.16633.21044.76591-.20342.75364-.589-.01244-.36438-.092-.95872.24576-.98177.5484-.03532,1.125-.6438,1.39745-.5872.30955.06368.72876.75176.41385,2.84779a10.68021,10.68021,0,0,1-1.71219,4.21523c-.43154.704-.8632.16627-1.44161-.13089a18.42553,18.42553,0,0,0-2.61973-.61556C337.21825,72.51581,334.97186,71.665,334.98419,71.97454Zm38.62816-16.37961h-8.10311A42.44852,42.44852,0,0,1,353.82245,83.7568l5.75407,5.75407A50.32605,50.32605,0,0,0,373.61235,55.59493ZM359.57652,19.41674,353.573,25.42016a20.41079,20.41079,0,0,0,3.0406,3.65091c.59793.6102,1.233,1.20812,1.76542,1.74762.51115.51474,3.78523,4.5884,3.152,5.17914-.046.04428-.09546.085-.145.12559a42.794,42.794,0,0,1,4.12137,17.20738h8.10493A50.31814,50.31814,0,0,0,359.57652,19.41674Zm-35.515-7.53359a42.36155,42.36155,0,0,1,19.09127,5.06422,5.9588,5.9588,0,0,0,1.438-.32017c.72175-.33608,2.14031.428,2.82491.82606.62435.36079,1.10907.895,1.79538,1.28059a4.79594,4.79594,0,0,1,2.07835,2.66748c.24946,1.14086.97287,1.06308.61208,1.52481-.18043.22989.09551.31833.44038.52352l5.63562-5.63379A50.32664,50.32664,0,0,0,324.06153,3.78Zm0,10.37248a32.04483,32.04483,0,0,1,18.34652,6.55724c-.58012-.76773-1.16749-1.562-1.4399-1.85381-.497-.52889-2.35787-1.17988-2.17026-1.4823.18561-.30429,1.84137,1.01709,2.1314.78532.34841-.27937-.83135-1.7971-.74286-1.85553a7.762,7.762,0,0,1,2.2057,2.48c.28656.42629,1.04722.21044,1.63978.62263.5217.36616.55714.95165.99581,1.32841.07076.06191.9994.59793.4599.536-.15566-.01769-.39451-.34852-.5731-.18042-.11144.10613.06721.6757.38737,1.29834l2.69225-2.694c-.391-.79245-1.16213-1.83784-1.69992-1.9705-.55542-.1362-.89681.33077-1.27888.64734-.38207.31663-.85966.42276-.91975.21049a10.0488,10.0488,0,0,1,.04953-1.07717c-.039-.30955-.2813-.55365-.36267-.85259-.1928-.704.09375-1.48931-.33437-1.9564a12.7527,12.7527,0,0,1-1.15323-1.87847,6.17043,6.17043,0,0,1-1.1675-2.47644,40.158,40.158,0,0,0-17.06582-4.29648Zm0,10.37437a21.78021,21.78021,0,0,1,13.4981,5.60189l5.7329-5.73107a29.84752,29.84752,0,0,0-19.231-7.97924Zm0,10.392a11.53376,11.53376,0,0,1,2.26938.45985c.19281-.47228.67571-.70748,1.07193-.97635.4688-.31845.80842-.67752.7412.18744a1.67464,1.67464,0,0,1-.62971,1.2241,11.52189,11.52189,0,0,1,2.25175,1.29834c.15383.11492.30418.2352.45282.35731l.7783-.77835a.31714.31714,0,0,1-.0141-.08668c.0141-.4421.65442-.96933,1.3938-1.293l2.52763-2.52769c-.0566-.01238-.11845-.023-.191-.03189-.33962-.04234-.82251.6616-1.15323.46708-.37334-.21767,1.11609-1.53011,1.78123-1.27716.09021.03361.18916.07252.29181.11321l.32193-.322a19.52021,19.52021,0,0,0-11.89376-4.93858Zm-1.13206,2.20753a9.2171,9.2171,0,0,0-2.75587.41739c-.11674.12742-.20524.23355-.13791.329.22287.32552.90211-.35725.99227.27075.06721.4563-.75177.12022-.67747.4563.06008.26881.62794.15743.64209.52712a1.85649,1.85649,0,0,1-.61728,1.18159c-.36443.23349-2.30663.49-2.49236.941a3.32086,3.32086,0,0,1-.63679,1.07374c-.33072.34852-1.88919,1.27352-1.89272,1.51414-.00879.5678.74828-.15566.95871-.37853.33437-.35377.79427-.35206,1.29486-.63856.68979-.39274.95518.98171.2158,1.03124-.46173.03179-.85076,1.32841-1.57428,1.079-.18214-.06368-.69693-.38213-.80842-.05307-.11846.35018,1.07546.40507,1.45051.65271.95336.62971-.72346.58549-.99232.757-.26538.16981-.13443.536.22824.38744.35017-.1451.826-.51126,1.04356.08313.29363.80477-1.32487,3.74107-1.79538,3.43152-.25649-.168-.52181.07081-.76238.17335a9.33537,9.33537,0,0,0,1.19221,1.85381c.31845-.52541.82069-1.26832,1.033-1.27358.30065-.00884.19988-.24587.31308-.45813.13974-.25648.497.01238.52182-.33785.0247-.34846.91626-.84905,1.01885-1.362.05307-.276-.27594-.55022-.13974-.77835a.69978.69978,0,0,1,.46527-.3803c.17854-.06191.6013.359.73048.17688.12912-.18219.75883-.04245,1.23991.26174.21933.13974.64563-.02117.90747.35023.36262.51125-.01769.55542.04771.66863.06367.1132.22116-.06368.31662.03007.20353.19816-.94451.87033-.81362,1.23648.12913.36438-.97286,2.16861-1.27534,2.45516-.41568.37854-1.102-.04422-1.37263.03361-.29186.08314-.34846.33255-.79775.22288a1.85349,1.85349,0,0,0-1.14621.23879,9.11518,9.11518,0,0,0,7.5442,2.17038,2.70232,2.70232,0,0,0,.48638-1.33907,2.30652,2.30652,0,0,1,.12918-.83485c.11846-.19816.87193-1.125,1.17269-1.1126.26356.01061.444.24227.82423.12382.73767-.23178,1.194-.03538,1.20111.283.01056.444-.92865.31663-.88973.566.0247.17507.70577.43874.92864.184a1.17335,1.17335,0,0,0,.24764-1.22228c-.29545-.37323-.27771-.52712.14682-.38213.26179.09021.26-.94274.50943-1.339.33961-.53243-.62789-.15925-1.03119-.10265-.38041.05312-.69521-.75884-.70406-1.04357-.00707-.20518.72169.72523,1.08956.74463a1.00551,1.00551,0,0,0,.91273-.81533c.0089-.35388-.79245-.40158-.91444-.83141-.06716-.23531.65088-.00183.5961-.23349-.046-.20342.07258-.69344-.38025-.888-.45111-.19281-.865-1.638-1.22592-1.73707-.32016-.08667-.58721.3467-.78355.50589-.19457.15748-.50589-.11492-.34316-.26527a3.34543,3.34543,0,0,0,.88095-1.04362c.18744-.61208.97452.03184.83478-.82252-.15029-.92516-.93926-.74645-.573-1.1922a.63887.63887,0,0,0-.66685-1.04363c-.352.06722-.7217-.50589-.75884-1.00116-.023-.27241-.80488-.23-.77481-.51833.062-.589-.82069-.65089-1.36019-.6102a3.11491,3.11491,0,0,1-1.69993-.99586c-.11492-.20525-.86485.18042-.61727-.612.2441-.78006.98343.14151,1.2948-.08313a.50558.50558,0,0,0,.17688-.67576C323.04621,45.23483,322.98779,45.22952,322.92947,45.22952ZM287.88152,17.81587l5.754,5.75407a42.43961,42.43961,0,0,1,28.16188-11.68679V3.78A50.32636,50.32636,0,0,0,287.88152,17.81587ZM272.24477,53.3308h8.105a42.43823,42.43823,0,0,1,11.685-28.16l-5.75407-5.754A50.335,50.335,0,0,0,272.24477,53.3308Z"/></g><g id="AR"><path d="M124.94141,58.00635a16.00747,16.00747,0,0,1-5.88575-.97315,13.50674,13.50674,0,0,1-4.72363-3.32715,16.977,16.977,0,0,1-5.65039,3.21729,20.14588,20.14588,0,0,1-6.55957,1.083H96.18945q-2.88867,0-4.04883,1.14551a5.2129,5.2129,0,0,0-1.1621,3.814v15.6001H81.40527V59.79541a9.71692,9.71692,0,0,1,2.19727-6.68555,8.73444,8.73444,0,0,1,6.21484-2.7622,22.63773,22.63773,0,0,1-1.72656-8.91455,21.68726,21.68726,0,0,1,.97363-6.1211,22.31,22.31,0,0,1,2.32227-5.46142A27.05585,27.05585,0,0,1,97.79,27.167a23.57079,23.57079,0,0,1,6.30957-.98877,16.97,16.97,0,0,1,7.97266,1.86768,13.59169,13.59169,0,0,1,5.58691,5.33594,15.65222,15.65222,0,0,1,2.00879,7.98828,17.82454,17.82454,0,0,1-1.22363,6.52881,6.35824,6.35824,0,0,0,2.668,1.852,11.62348,11.62348,0,0,0,3.82911.53369h.31445c.208,0,.31348.084.31348.251v7.15674a.27762.27762,0,0,1-.31348.314ZM96.97363,42.78271a23.21079,23.21079,0,0,0,1.47559,7.502h2.44824a8.83241,8.83241,0,0,0,6.48242-2.60547A8.56931,8.56931,0,0,0,110,41.37012a8.22841,8.22841,0,0,0-1.67871-5.49268,5.50608,5.50608,0,0,0-4.41016-1.97754A12.01417,12.01417,0,0,0,97.916,35.689,26.3794,26.3794,0,0,0,96.97363,42.78271Z"/><path d="M131.87793,50.28467a21.91266,21.91266,0,0,1-1.72559-8.85156,21.62569,21.62569,0,0,1,.94141-6.02686,24.0011,24.0011,0,0,1,2.32227-5.55566,27.52253,27.52253,0,0,1,6.60742-2.731,24.05378,24.05378,0,0,1,6.13672-.94141,16.94245,16.94245,0,0,1,7.98828,1.8833,13.52348,13.52348,0,0,1,5.57226,5.32032,15.74485,15.74485,0,0,1,1.97657,7.98828,16.41769,16.41769,0,0,1-2.27539,8.66357,15.64918,15.64918,0,0,1-6.32422,5.86963,19.1141,19.1141,0,0,1-8.94629,2.103H124.62793a.27792.27792,0,0,1-.31445-.314V50.53564c0-.167.10547-.251.31445-.251Zm7.15723-7.502a23.18476,23.18476,0,0,0,1.47558,7.502h2.416a8.86938,8.86938,0,0,0,6.51367-2.60547,8.56649,8.56649,0,0,0,2.62109-6.30908,8.31655,8.31655,0,0,0-1.66406-5.4458,5.4397,5.4397,0,0,0-4.42578-2.02442,12.017,12.017,0,0,0-5.99512,1.78906A26.37912,26.37912,0,0,0,139.03516,42.78271Z"/><path d="M168.13281,50.28467h11.64551l-8.28711-32.45606h10.01367l7.65821,32.45606h.43945a5.79473,5.79473,0,0,0,4.69336-1.77344q1.48974-1.7732,1.49023-5.66553V9.16553h9.57422v34.4331q0,6.561-3.626,10.48389-3.6255,3.92431-9.99708,3.92383H168.13281Zm.62793-39.48731,3.67285-.59619A5.66372,5.66372,0,0,1,170.36133,8.459a4.31548,4.31548,0,0,1-.81641-2.62109A5.20773,5.20773,0,0,1,171.46,1.5376,7.98678,7.98678,0,0,1,176.60742,0a10.80781,10.80781,0,0,1,5.27344,1.16113l-1.28613,3.26465a7.69107,7.69107,0,0,0-3.48438-.8164,3.07729,3.07729,0,0,0-2.22851.8164,2.9888,2.9888,0,0,0-.84766,2.25977,2.85261,2.85261,0,0,0,.56445,1.75781,3.58435,3.58435,0,0,0,1.38184,1.12988l1.12988-.188q3.26367-.5017,5.21-.65918v3.73487q-2.291.15747-7.58008.78515-5.28954.62769-5.97949.81592Z"/><path d="M214.35547,9.16553h9.57422V58.00635h-9.57422Z"/><path d="M16.00781,121.33008q-7.84716,0-11.92773-3.73535Q.00049,113.85937,0,106.5459a20.96731,20.96731,0,0,1,2.05566-9.24414,16.13507,16.13507,0,0,1,5.72852-6.6543,15.02239,15.02239,0,0,1,8.41211-2.40137,14.28237,14.28237,0,0,1,7.94141,2.32276,17.05719,17.05719,0,0,1,5.82324,6.66992,20.01564,20.01564,0,0,1,2.24414,9.30713q0,7.62744-4.08106,11.20556Q24.043,121.33009,16.00781,121.33008ZM9.76172,83.34961a4.09036,4.09036,0,0,1-3.13867-1.24023,4.73575,4.73575,0,0,1-1.16114-3.374,4.82116,4.82116,0,0,1,1.14551-3.40576,4.08388,4.08388,0,0,1,3.1543-1.23975A4.018,4.018,0,0,1,12.86914,75.314,4.8529,4.8529,0,0,1,13.999,78.73535a4.71529,4.71529,0,0,1-1.16113,3.40576A4.07035,4.07035,0,0,1,9.76172,83.34961Zm6.18359,30.16455a6.39313,6.39313,0,0,0,5.00684-1.80469q1.61573-1.80468,1.61621-5.47754a13.05817,13.05817,0,0,0-1.96191-7.20361q-1.96143-3.06079-4.72364-3.06055-2.76268,0-4.69238,2.98194a13.11953,13.11953,0,0,0-1.93066,7.28222q0,3.70386,1.64746,5.49317A6.52939,6.52939,0,0,0,15.94531,113.51416Zm4.74024-30.16455a4.094,4.094,0,0,1-3.13965-1.24023,4.73574,4.73574,0,0,1-1.16113-3.374,4.82563,4.82563,0,0,1,1.1455-3.40576,4.08465,4.08465,0,0,1,3.15528-1.23975,4.03492,4.03492,0,0,1,3.13867,1.23975,4.86887,4.86887,0,0,1,1.12988,3.40576,4.70042,4.70042,0,0,1-1.17676,3.374A4.06727,4.06727,0,0,1,20.68555,83.34961Z"/><path d="M39.26758,112.98047H60.7373a39.94032,39.94032,0,0,0-3.21679-9.58936,22.24612,22.24612,0,0,0-4.834-6.30908,24.70736,24.70736,0,0,0-7.17285-4.41015L49.124,83.66309A30.592,30.592,0,0,1,62.77832,94.147q5.17822,7.09423,7.5957,18.8335h8.44336c.209,0,.31446.084.31446.251v7.15673a.27792.27792,0,0,1-.31446.314H39.26758Z"/><path d="M78.1582,120.70215a.27792.27792,0,0,1-.31445-.314v-7.15673c0-.167.10547-.251.31445-.251h25.958q-2.543-2.38477-3.92383-9.19678-.8789-4.33154-2.58886-6.07373a6.89559,6.89559,0,0,0-5.13282-1.74219,15.37313,15.37313,0,0,0-4.2373.56494,20.77342,20.77342,0,0,0-4.29981,1.85206l-2.88769-7.0625a28.03924,28.03924,0,0,1,13.43457-3.07618q6.43359,0,10.01269,2.8877,3.57863,2.88867,4.708,9.51074,1.66407,9.57421,4.48926,12.33594h4.17383q.3457,0,.3457.251v7.15673q0,.31422-.3457.314Z"/><path d="M117.2373,120.70215a.27792.27792,0,0,1-.31445-.314v-7.15673c0-.167.10547-.251.31445-.251h9.9502V88.874h9.57324v24.10645h9.668c.209,0,.31348.084.31348.251v7.15673a.27723.27723,0,0,1-.31348.314Zm8.72559-37.35254a4.09038,4.09038,0,0,1-3.13867-1.24023,4.73574,4.73574,0,0,1-1.16113-3.374,4.82121,4.82121,0,0,1,1.1455-3.40576,4.08389,4.08389,0,0,1,3.1543-1.23975,4.018,4.018,0,0,1,3.10742,1.22412,4.8529,4.8529,0,0,1,1.12989,3.42139,4.71525,4.71525,0,0,1-1.16114,3.40576A4.07035,4.07035,0,0,1,125.96289,83.34961Zm10.92383,0a4.094,4.094,0,0,1-3.13965-1.24023,4.73579,4.73579,0,0,1-1.16113-3.374,4.82559,4.82559,0,0,1,1.14551-3.40576,4.08462,4.08462,0,0,1,3.15527-1.23975,4.0349,4.0349,0,0,1,3.13867,1.23975,4.86887,4.86887,0,0,1,1.12988,3.40576,4.70042,4.70042,0,0,1-1.17675,3.374A4.06731,4.06731,0,0,1,136.88672,83.34961Z"/><path d="M153.02051,112.98047a21.91266,21.91266,0,0,1-1.72559-8.85156,21.62569,21.62569,0,0,1,.94141-6.02686,24.00172,24.00172,0,0,1,2.32226-5.55566,27.52317,27.52317,0,0,1,6.60743-2.731,24.05371,24.05371,0,0,1,6.13671-.94141,16.94247,16.94247,0,0,1,7.98829,1.8833,13.52354,13.52354,0,0,1,5.57226,5.32032,15.745,15.745,0,0,1,1.97656,7.98828,18.324,18.324,0,0,1-1.19238,6.623,6.48375,6.48375,0,0,0,2.65234,1.77344,11.57926,11.57926,0,0,0,3.751.51807h.3457c.209,0,.31348.084.31348.251v7.15673a.27723.27723,0,0,1-.31348.314h-.3457a16.40182,16.40182,0,0,1-5.88574-.95752,12.81126,12.81126,0,0,1-4.72363-3.34277,16.63124,16.63124,0,0,1-5.61817,3.21728,20.06065,20.06065,0,0,1-6.52929,1.083H145.77051a.27792.27792,0,0,1-.31446-.314v-7.15673c0-.167.10547-.251.31446-.251Zm7.15722-7.50195a23.1848,23.1848,0,0,0,1.47559,7.50195h2.416A8.86938,8.86938,0,0,0,170.583,110.375a8.56649,8.56649,0,0,0,2.62109-6.30908,8.3166,8.3166,0,0,0-1.66406-5.4458,5.43973,5.43973,0,0,0-4.42578-2.02442,12.01693,12.01693,0,0,0-5.99512,1.78907A26.37907,26.37907,0,0,0,160.17773,105.47852Z"/><path d="M187.7373,120.70215a.27792.27792,0,0,1-.31445-.314v-7.15673c0-.167.10547-.251.31445-.251h8.03516V71.86133h9.57324v48.84082Z"/><path d="M214.35742,71.86133h9.57422v48.84082h-9.57422Z"/></g></g></svg>